<?xml version="1.0" encoding="UTF-8"?>
<svg width="238.52" height="127.04" fill="none" version="1.1" viewBox="0 0 238.52 127.04" xmlns="http://www.w3.org/2000/svg">
 <path d="m0 27.28c0-15.066 12.35-27.28 27.584-27.28h183.35c15.234 0 27.583 12.214 27.583 27.28v18.411c-0.218-9e-3 -0.438-0.0141-0.658-0.0141-9.098 0-16.473 7.9883-16.473 17.842 0 9.854 7.375 17.842 16.473 17.842 0.22 0 0.44-5e-3 0.658-0.014v18.41c0 15.066-12.349 27.28-27.583 27.28h-183.35c-15.234-1e-5 -27.584-12.214-27.584-27.28v-18.41c8.792-0.37459 15.814-8.2133 15.814-17.828 0-9.615-7.0215-17.454-15.814-17.828z" fill="#12a594"/>
 <path d="m210.94 0h-183.35c-11.996 0-22.203 7.5728-26 18.148h235.35c-3.797-10.575-14.004-18.148-26-18.148z" fill="#114249"/>
 <g stroke-linecap="round">
  <path d="m84.454 69.999c4.991 11.667 20.546 24.629 52.146 15.65" stroke="#114249" stroke-width="2"/>
  <g transform="translate(-.241 -55.981)" stroke="#fff" stroke-width=".5">
   <line x1="31.602" x2="31.602" y1="76.972" y2="86.257"/>
   <line x1="31.602" x2="31.602" y1="90.019" y2="99.304"/>
   <line x1="31.602" x2="31.602" y1="103.07" y2="112.35"/>
   <line x1="31.602" x2="31.602" y1="116.11" y2="125.4"/>
   <line x1="31.602" x2="31.602" y1="142.21" y2="151.49"/>
   <line x1="31.602" x2="31.602" y1="168.3" y2="177.58"/>
   <line x1="31.602" x2="31.602" y1="155.25" y2="164.54"/>
   <line x1="31.602" x2="31.602" y1="129.16" y2="138.44"/>
   <line x1="209" x2="209" y1="76.972" y2="86.257"/>
   <line x1="209" x2="209" y1="90.019" y2="99.304"/>
   <line x1="209" x2="209" y1="103.07" y2="112.35"/>
   <line x1="209" x2="209" y1="116.11" y2="125.4"/>
   <line x1="209" x2="209" y1="142.21" y2="151.49"/>
   <line x1="209" x2="209" y1="168.3" y2="177.58"/>
   <line x1="209" x2="209" y1="155.25" y2="164.54"/>
   <line x1="209" x2="209" y1="129.16" y2="138.44"/>
  </g>
  <path d="m126.46 39.654c1.8-0.9724 9.613-1.517 13.546 2.2755m-14.856 12.515c0-7.5849 13.982-7.5849 13.982 0m-38.015-12.515c2.412-2.211 8.739-4.1716 12.672-2.2754m-11.361 14.791c0-7.5849 13.982-7.5849 13.982 0" stroke="#114249" stroke-width="2"/>
 </g>
</svg>
