<svg width="238.52" height="127.04" xmlns="http://www.w3.org/2000/svg"><path d="M0 27.28C0 12.214 12.35 0 27.584 0h183.35c15.234 0 27.583 12.214 27.583 27.28v18.41a15.46 15.46 0 0 0-.658-.014c-9.098 0-16.473 7.988-16.473 17.842s7.375 17.842 16.473 17.842c.22 0 .44-.005.658-.014v18.41c0 15.066-12.349 27.28-27.583 27.28H27.584C12.35 127.036 0 114.822 0 99.756v-18.41c8.792-.375 15.814-8.213 15.814-17.828S8.793 46.064 0 45.69zm138.28 57.892a1.75 1.75 0 0 1-1.205 2.162c-16.086 4.57-28.298 3.613-37.212-.155C90.952 83.413 85.5 76.905 82.84 70.69a1.75 1.75 0 1 1 3.218-1.377c2.331 5.45 7.153 11.257 15.167 14.644 8.012 3.386 19.377 4.42 34.892.011a1.75 1.75 0 0 1 2.162 1.205zm-35.99-41.953c.909-.834 2.779-1.773 4.963-2.26 2.189-.488 4.301-.435 5.766.271a1.75 1.75 0 0 0 1.52-3.153c-2.468-1.19-5.486-1.105-8.047-.534-2.565.572-5.065 1.719-6.568 3.096a1.75 1.75 0 1 0 2.366 2.58zm24.992-2.026c.155-.083.714-.269 1.704-.39.93-.114 2.079-.153 3.296-.054 2.494.202 4.954.95 6.499 2.44a1.75 1.75 0 0 0 2.43-2.52c-2.388-2.302-5.8-3.178-8.646-3.409a20.128 20.128 0 0 0-4.005.069c-1.104.135-2.196.382-2.942.785a1.75 1.75 0 0 0 1.664 3.08zm-23.114 13.251c0-1.28.559-2.196 1.46-2.848.953-.69 2.321-1.09 3.781-1.09 1.461 0 2.828.4 3.781 1.09.902.652 1.46 1.567 1.46 2.848a1.75 1.75 0 0 0 3.5 0c0-2.512-1.188-4.44-2.909-5.684-1.668-1.207-3.797-1.755-5.832-1.755s-4.163.548-5.832 1.755c-1.72 1.244-2.909 3.172-2.909 5.684a1.75 1.75 0 1 0 3.5 0zm22.722 0c0-1.28.558-2.196 1.46-2.848.953-.69 2.32-1.09 3.781-1.09 1.46 0 2.828.4 3.781 1.09.901.652 1.46 1.567 1.46 2.848a1.75 1.75 0 0 0 3.5 0c0-2.512-1.189-4.44-2.909-5.684-1.669-1.207-3.797-1.755-5.832-1.755s-4.164.548-5.832 1.755c-1.721 1.244-2.909 3.172-2.909 5.684a1.75 1.75 0 1 0 3.5 0zM31.607 20.74a.5.5 0 0 1 .5.5v8.785a.5.5 0 0 1-1 0V21.24a.5.5 0 0 1 .5-.5zm.5 13.547a.5.5 0 1 0-1 0v8.785a.5.5 0 1 0 1 0zm-.5 12.546a.5.5 0 0 1 .5.5v8.785a.5.5 0 0 1-1 0v-8.785a.5.5 0 0 1 .5-.5zm.5 13.547a.5.5 0 1 0-1 0v8.785a.5.5 0 1 0 1 0zm-.5 25.593a.5.5 0 0 1 .5.5v8.786a.5.5 0 0 1-1 0v-8.786a.5.5 0 0 1 .5-.5zm.5 26.593a.5.5 0 0 0-1 0v8.785a.5.5 0 0 0 1 0zm-.5-13.547a.5.5 0 0 1 .5.5v8.785a.5.5 0 0 1-1 0V99.52a.5.5 0 0 1 .5-.5zm.5-25.593a.5.5 0 0 0-1 0v8.785a.5.5 0 1 0 1 0zm176.9-52.686a.5.5 0 0 1 .5.5v8.785a.5.5 0 1 1-1 0V21.24a.5.5 0 0 1 .5-.5zm.501 13.547a.5.5 0 0 0-1 0v8.785a.5.5 0 1 0 1 0zm-.5 12.546a.5.5 0 0 1 .5.5v8.785a.5.5 0 0 1-1 0v-8.785a.5.5 0 0 1 .5-.5zm.5 13.547a.5.5 0 0 0-1 0v8.785a.5.5 0 1 0 1 0zm-.5 25.593a.5.5 0 0 1 .5.5v8.786a.5.5 0 0 1-1 0v-8.786a.5.5 0 0 1 .5-.5zm.5 26.593a.5.5 0 0 0-1 0v8.785a.5.5 0 1 0 1 0zm-.5-13.547a.5.5 0 0 1 .5.5v8.785a.5.5 0 0 1-1 0V99.52a.5.5 0 0 1 .5-.5zm.5-25.593a.5.5 0 0 0-1 0v8.785a.5.5 0 1 0 1 0z" clip-rule="evenodd" fill="#fff" fill-rule="evenodd"/><path d="M210.94.004H27.59c-11.996 0-22.203 7.573-26 18.148h235.35C233.143 7.577 222.936.004 210.94.004z" fill="#e4e4e4"/></svg>