<?xml version="1.0" encoding="UTF-8"?>
<svg width="238.52" height="127.04" fill="none" version="1.1" viewBox="0 0 238.52 127.04" xmlns="http://www.w3.org/2000/svg">
 <path d="m0 27.28c0-15.066 12.35-27.28 27.584-27.28h183.35c15.234 0 27.583 12.214 27.583 27.28v18.41c-0.218-0.0094-0.438-0.0141-0.658-0.0141-9.098 0-16.473 7.9883-16.473 17.842s7.375 17.842 16.473 17.842c0.22 0 0.44-0.0047 0.658-0.014v18.41c0 15.066-12.349 27.28-27.583 27.28h-183.35c-15.234 0-27.584-12.214-27.584-27.28v-18.41c8.792-0.3746 15.814-8.2133 15.814-17.828s-7.0215-17.454-15.814-17.828z" fill="#12a594"/>
 <path d="m210.94 0h-183.35c-11.996 0-22.203 7.5728-26 18.148h235.35c-3.797-10.575-14.004-18.148-26-18.148z" fill="#114249"/>
 <path d="m84.454 70c4.991 11.667 20.546 24.629 52.146 15.65" stroke="#114249" stroke-linecap="round" stroke-width="3.5"/>
 <g stroke="#fff" stroke-linecap="round">
  <line x1="31.611" x2="31.611" y1="21.241" y2="30.026"/>
  <line x1="31.611" x2="31.611" y1="34.288" y2="43.073"/>
  <line x1="31.611" x2="31.611" y1="47.334" y2="56.119"/>
  <line x1="31.611" x2="31.611" y1="60.381" y2="69.166"/>
  <line x1="31.611" x2="31.611" y1="86.474" y2="95.258"/>
  <line x1="31.611" x2="31.611" y1="112.57" y2="121.35"/>
  <line x1="31.611" x2="31.611" y1="99.52" y2="108.31"/>
  <line x1="31.611" x2="31.611" y1="73.427" y2="82.212"/>
  <line x1="209.01" x2="209.01" y1="21.241" y2="30.026"/>
  <line x1="209.01" x2="209.01" y1="34.288" y2="43.073"/>
  <line x1="209.01" x2="209.01" y1="47.334" y2="56.119"/>
  <line x1="209.01" x2="209.01" y1="60.381" y2="69.166"/>
  <line x1="209.01" x2="209.01" y1="86.474" y2="95.258"/>
  <line x1="209.01" x2="209.01" y1="112.57" y2="121.35"/>
  <line x1="209.01" x2="209.01" y1="99.52" y2="108.31"/>
  <line x1="209.01" x2="209.01" y1="73.427" y2="82.212"/>
 </g>
 <path d="m126.45 39.654c1.8-0.9724 9.613-1.517 13.546 2.2755m-14.856 12.515c0-7.5849 13.982-7.5849 13.982 0m-38.015-12.515c2.412-2.211 8.739-4.1716 12.672-2.2754m-11.361 14.791c0-7.5849 13.982-7.5849 13.982 0" stroke="#114249" stroke-linecap="round" stroke-width="3.5"/>
</svg>
