<?xml version="1.0" encoding="utf-8"?><svg xmlns="http://www.w3.org/2000/svg" xmlns:xlink="http://www.w3.org/1999/xlink"><symbol viewBox="0 0 448 512" id="angle-down" xmlns="http://www.w3.org/2000/svg"><path d="M201.4 374.6c12.5 12.5 32.8 12.5 45.3 0l160-160c12.5-12.5 12.5-32.8 0-45.3s-32.8-12.5-45.3 0L224 306.7 86.6 169.4c-12.5-12.5-32.8-12.5-45.3 0s-12.5 32.8 0 45.3l160 160z"/></symbol><symbol viewBox="0 0 448 512" id="angle-down-light" xmlns="http://www.w3.org/2000/svg"><path fill="#ecedee" d="M201.4 374.6c12.5 12.5 32.8 12.5 45.3 0l160-160c12.5-12.5 12.5-32.8 0-45.3s-32.8-12.5-45.3 0L224 306.7 86.6 169.4c-12.5-12.5-32.8-12.5-45.3 0s-12.5 32.8 0 45.3l160 160z"/></symbol><symbol viewBox="0 0 512 512" id="circle-check-success" xmlns="http://www.w3.org/2000/svg"><path fill="#30a46c" d="M256 512c141.4 0 256-114.6 256-256S397.4 0 256 0 0 114.6 0 256s114.6 256 256 256zm113-303L241 337c-9.4 9.4-24.6 9.4-33.9 0l-64-64c-9.4-9.4-9.4-24.6 0-33.9s24.6-9.4 33.9 0l47 47L335 175c9.4-9.4 24.6-9.4 33.9 0s9.4 24.6 0 33.9z"/></symbol><symbol viewBox="0 0 512 512" id="circle-exclamation-error" xmlns="http://www.w3.org/2000/svg"><path fill="#e54d2e" d="M256 512c141.4 0 256-114.6 256-256S397.4 0 256 0 0 114.6 0 256s114.6 256 256 256zm0-384c13.3 0 24 10.7 24 24v112c0 13.3-10.7 24-24 24s-24-10.7-24-24V152c0-13.3 10.7-24 24-24zm32 224c0 17.7-14.3 32-32 32s-32-14.3-32-32 14.3-32 32-32 32 14.3 32 32z"/></symbol><symbol viewBox="0 0 512 512" id="circle-user" xmlns="http://www.w3.org/2000/svg"><path d="M256 112c-48.6 0-88 39.4-88 88s39.4 88 88 88 88-39.4 88-88-39.4-88-88-88zm0 128c-22.06 0-40-17.95-40-40 0-22.1 17.9-40 40-40s40 17.94 40 40c0 22.1-17.9 40-40 40zm0-240C114.6 0 0 114.6 0 256s114.6 256 256 256 256-114.6 256-256S397.4 0 256 0zm0 464c-46.73 0-89.76-15.68-124.5-41.79C148.8 389 182.4 368 220.2 368h71.69c37.75 0 71.31 21.01 88.68 54.21C345.8 448.3 302.7 464 256 464zm160.2-75.5c-27-42.2-73-68.5-124.4-68.5h-71.6c-51.36 0-97.35 26.25-124.4 68.48C65.96 352.5 48 306.3 48 256c0-114.7 93.31-208 208-208s208 93.31 208 208c0 50.3-18 96.5-47.8 132.5z"/></symbol><symbol viewBox="0 0 320 512" id="close" xmlns="http://www.w3.org/2000/svg"><path d="M310.6 150.6c12.5-12.5 12.5-32.8 0-45.3s-32.8-12.5-45.3 0L160 210.7 54.6 105.4c-12.5-12.5-32.8-12.5-45.3 0s-12.5 32.8 0 45.3L114.7 256 9.4 361.4c-12.5 12.5-12.5 32.8 0 45.3s32.8 12.5 45.3 0L160 301.3l105.4 105.3c12.5 12.5 32.8 12.5 45.3 0s12.5-32.8 0-45.3L205.3 256l105.3-105.4z"/></symbol><symbol viewBox="0 0 512 512" id="headset" xmlns="http://www.w3.org/2000/svg"><path d="M256 48C141.1 48 48 141.1 48 256v40c0 13.3-10.7 24-24 24S0 309.3 0 296v-40C0 114.6 114.6 0 256 0s256 114.6 256 256v144.1c0 48.6-39.4 88-88.1 88l-110.3-.1c-8.3 14.3-23.8 24-41.6 24h-32c-26.5 0-48-21.5-48-48s21.5-48 48-48h32c17.8 0 33.3 9.7 41.6 24l110.4.1c22.1 0 40-17.9 40-40V256c0-114.9-93.1-208-208-208zM144 208h16c17.7 0 32 14.3 32 32v112c0 17.7-14.3 32-32 32h-16c-35.3 0-64-28.7-64-64v-48c0-35.3 28.7-64 64-64zm224 0c35.3 0 64 28.7 64 64v48c0 35.3-28.7 64-64 64h-16c-17.7 0-32-14.3-32-32V240c0-17.7 14.3-32 32-32h16z"/></symbol><symbol viewBox="0 0 640 512" id="language" xmlns="http://www.w3.org/2000/svg"><path d="M0 128c0-35.3 28.7-64 64-64h512c35.3 0 64 28.7 64 64v256c0 35.3-28.7 64-64 64H64c-35.3 0-64-28.7-64-64V128zm320 0v256h256V128H320zm-141.7 47.9c-3.2-7.2-10.4-11.9-18.3-11.9s-15.1 4.7-18.3 11.9l-64 144c-4.5 10.1.1 21.9 10.2 26.4s21.9-.1 26.4-10.2l8.9-20.1h73.6l8.9 20.1c4.5 10.1 16.3 14.6 26.4 10.2s14.6-16.3 10.2-26.4l-64-144zM160 233.2l19 42.8h-38l19-42.8zM448 164c11 0 20 9 20 20v4h60c11 0 20 9 20 20s-9 20-20 20h-2l-1.6 4.5c-8.9 24.4-22.4 46.6-39.6 65.4.9.6 1.8 1.1 2.7 1.6l18.9 11.3c9.5 5.7 12.5 18 6.9 27.4s-18 12.5-27.4 6.9L467 333.8c-4.5-2.7-8.8-5.5-13.1-8.5-10.6 7.5-21.9 14-34 19.4l-3.6 1.6c-10.1 4.5-21.9-.1-26.4-10.2s.1-21.9 10.2-26.4l3.6-1.6c6.4-2.9 12.6-6.1 18.5-9.8L410 286.1c-7.8-7.8-7.8-20.5 0-28.3s20.5-7.8 28.3 0l14.6 14.6.5.5c12.4-13.1 22.5-28.3 29.8-45H376c-11 0-20-9-20-20s9-20 20-20h52v-4c0-11 9-20 20-20z"/></symbol><symbol viewBox="0 0 576 512" id="logout" xmlns="http://www.w3.org/2000/svg"><path d="M534.6 278.6c12.5-12.5 12.5-32.8 0-45.3l-128-128c-12.5-12.5-32.8-12.5-45.3 0s-12.5 32.8 0 45.3l73.4 73.4H224c-17.7 0-32 14.3-32 32s14.3 32 32 32h210.7l-73.4 73.4c-12.5 12.5-12.5 32.8 0 45.3s32.8 12.5 45.3 0l128-128zM192 96c17.7 0 32-14.3 32-32s-14.3-32-32-32h-64c-53 0-96 43-96 96v256c0 53 43 96 96 96h64c17.7 0 32-14.3 32-32s-14.3-32-32-32h-64c-17.7 0-32-14.3-32-32V128c0-17.7 14.3-32 32-32h64z"/></symbol><symbol viewBox="0 0 512 512" id="palette" xmlns="http://www.w3.org/2000/svg"><path d="M512 256v2.7c-.4 36.5-33.6 61.3-70.1 61.3H344c-26.5 0-48 21.5-48 48 0 3.4.4 6.7 1 9.9 2.1 10.2 6.5 20 10.8 29.9 6.1 13.8 12.1 27.5 12.1 42 0 31.8-21.6 60.7-53.4 62-3.5.1-7 .2-10.6.2C114.6 512 0 397.4 0 256S114.6 0 256 0s256 114.6 256 256zm-384 32c0-17.7-14.3-32-32-32s-32 14.3-32 32 14.3 32 32 32 32-14.3 32-32zm0-96c17.7 0 32-14.3 32-32s-14.3-32-32-32-32 14.3-32 32 14.3 32 32 32zm160-96c0-17.7-14.3-32-32-32s-32 14.3-32 32 14.3 32 32 32 32-14.3 32-32zm96 96c17.7 0 32-14.3 32-32s-14.3-32-32-32-32 14.3-32 32 14.3 32 32 32z"/></symbol><symbol viewBox="0 0 448 512" id="priority" xmlns="http://www.w3.org/2000/svg"><path d="M349.4 44.6c5.9-13.7 1.5-29.7-10.6-38.5s-28.6-8-39.9 1.8l-256 224c-10 8.8-13.6 22.9-8.9 35.3S50.7 288 64 288h111.5L98.6 467.4c-5.9 13.7-1.5 29.7 10.6 38.5s28.6 8 39.9-1.8l256-224c10-8.8 13.6-22.9 8.9-35.3s-16.6-20.7-30-20.7H272.5l76.9-179.5z"/></symbol><symbol viewBox="0 0 512 512" id="status" xmlns="http://www.w3.org/2000/svg"><path d="M256 512c141.4 0 256-114.6 256-256S397.4 0 256 0 0 114.6 0 256s114.6 256 256 256zm0-160c-53 0-96-43-96-96s43-96 96-96 96 43 96 96-43 96-96 96z"/></symbol><symbol viewBox="0 0 448 512" id="user" xmlns="http://www.w3.org/2000/svg"><path d="M224 256c70.7 0 128-57.3 128-128S294.7 0 224 0 96 57.3 96 128s57.3 128 128 128zm-45.7 48C79.8 304 0 383.8 0 482.3 0 498.7 13.3 512 29.7 512h388.6c16.4 0 29.7-13.3 29.7-29.7 0-98.5-79.8-178.3-178.3-178.3h-91.4z"/></symbol><symbol viewBox="0 0 640 512" id="user-group" xmlns="http://www.w3.org/2000/svg"><path d="M352 128c0 70.7-57.3 128-128 128S96 198.7 96 128 153.3 0 224 0s128 57.3 128 128zM0 482.3C0 383.8 79.8 304 178.3 304h91.4c98.5 0 178.3 79.8 178.3 178.3 0 16.4-13.3 29.7-29.7 29.7H29.7C13.3 512 0 498.7 0 482.3zM609.3 512H471.4c5.4-9.4 8.6-20.3 8.6-32v-8c0-60.7-27.1-115.2-69.8-151.8 2.4-.1 4.7-.2 7.1-.2h61.4c89.1 0 161.3 72.2 161.3 161.3 0 17-13.8 30.7-30.7 30.7zM432 256c-31 0-59-12.6-79.3-32.9 19.7-26.6 31.3-59.5 31.3-95.1 0-26.8-6.6-52.1-18.3-74.3C384.3 40.1 407.2 32 432 32c61.9 0 112 50.1 112 112s-50.1 112-112 112z"/></symbol></svg>