<?xml version="1.0" encoding="utf-8"?><svg xmlns="http://www.w3.org/2000/svg" xmlns:xlink="http://www.w3.org/1999/xlink"><symbol viewBox="0 0 448 512" id="angle-down" xmlns="http://www.w3.org/2000/svg"><path d="M201.4 374.6c12.5 12.5 32.8 12.5 45.3 0l160-160c12.5-12.5 12.5-32.8 0-45.3s-32.8-12.5-45.3 0L224 306.7 86.6 169.4c-12.5-12.5-32.8-12.5-45.3 0s-12.5 32.8 0 45.3l160 160z"/></symbol><symbol viewBox="0 0 448 512" id="angle-down-light" xmlns="http://www.w3.org/2000/svg"><path fill="#ecedee" d="M201.4 374.6c12.5 12.5 32.8 12.5 45.3 0l160-160c12.5-12.5 12.5-32.8 0-45.3s-32.8-12.5-45.3 0L224 306.7 86.6 169.4c-12.5-12.5-32.8-12.5-45.3 0s-12.5 32.8 0 45.3l160 160z"/></symbol><symbol viewBox="0 0 448 512" id="angle-down-secondary" xmlns="http://www.w3.org/2000/svg"><path fill="#687076" d="M201.4 374.6c12.5 12.5 32.8 12.5 45.3 0l160-160c12.5-12.5 12.5-32.8 0-45.3s-32.8-12.5-45.3 0L224 306.7 86.6 169.4c-12.5-12.5-32.8-12.5-45.3 0s-12.5 32.8 0 45.3l160 160z"/></symbol><symbol viewBox="0 0 448 512" id="angle-down-secondary-light" xmlns="http://www.w3.org/2000/svg"><path fill="#9ba1a6" d="M201.4 374.6c12.5 12.5 32.8 12.5 45.3 0l160-160c12.5-12.5 12.5-32.8 0-45.3s-32.8-12.5-45.3 0L224 306.7 86.6 169.4c-12.5-12.5-32.8-12.5-45.3 0s-12.5 32.8 0 45.3l160 160z"/></symbol><symbol viewBox="0 0 320 512" id="caret-down" xmlns="http://www.w3.org/2000/svg"><path d="M137.4 374.6c12.5 12.5 32.8 12.5 45.3 0l128-128c9.2-9.2 11.9-22.9 6.9-34.9S301 191.9 288 191.9L32 192c-12.9 0-24.6 7.8-29.6 19.8s-2.2 25.7 6.9 34.9l128 128z"/></symbol><symbol viewBox="0 0 512 512" id="check" xmlns="http://www.w3.org/2000/svg"><path d="M470.6 105.4c12.5 12.5 12.5 32.8 0 45.3l-256 256c-12.5 12.5-32.8 12.5-45.3 0l-128-128c-12.5-12.5-12.5-32.8 0-45.3s32.8-12.5 45.3 0L192 338.7l233.4-233.3c12.5-12.5 32.8-12.5 45.3 0z"/></symbol><symbol viewBox="0 0 512 512" id="circle-check-success" xmlns="http://www.w3.org/2000/svg"><path fill="#30a46c" d="M256 512c141.4 0 256-114.6 256-256S397.4 0 256 0 0 114.6 0 256s114.6 256 256 256zm113-303L241 337c-9.4 9.4-24.6 9.4-33.9 0l-64-64c-9.4-9.4-9.4-24.6 0-33.9s24.6-9.4 33.9 0l47 47L335 175c9.4-9.4 24.6-9.4 33.9 0s9.4 24.6 0 33.9z"/></symbol><symbol viewBox="0 0 512 512" id="circle-exclamation-error" xmlns="http://www.w3.org/2000/svg"><path fill="#e54d2e" d="M256 512c141.4 0 256-114.6 256-256S397.4 0 256 0 0 114.6 0 256s114.6 256 256 256zm0-384c13.3 0 24 10.7 24 24v112c0 13.3-10.7 24-24 24s-24-10.7-24-24V152c0-13.3 10.7-24 24-24zm32 224c0 17.7-14.3 32-32 32s-32-14.3-32-32 14.3-32 32-32 32 14.3 32 32z"/></symbol><symbol viewBox="0 0 512 512" id="circle-info-info" xmlns="http://www.w3.org/2000/svg"><path fill="#0078a1" d="M256 512c141.4 0 256-114.6 256-256S397.4 0 256 0 0 114.6 0 256s114.6 256 256 256zm-40-176h24v-64h-24c-13.3 0-24-10.7-24-24s10.7-24 24-24h48c13.3 0 24 10.7 24 24v88h8c13.3 0 24 10.7 24 24s-10.7 24-24 24h-80c-13.3 0-24-10.7-24-24s10.7-24 24-24zm40-144c-17.7 0-32-14.3-32-32s14.3-32 32-32 32 14.3 32 32-14.3 32-32 32z"/></symbol><symbol viewBox="0 0 512 512" id="circle-question" xmlns="http://www.w3.org/2000/svg"><path d="M256 0C114.6 0 0 114.6 0 256s114.6 256 256 256 256-114.6 256-256S397.4 0 256 0zm0 464c-114.7 0-208-93.31-208-208S141.3 48 256 48s208 93.31 208 208-93.3 208-208 208zm0-128c-18 0-32 14-32 32s13.1 32 32 32c17.1 0 32-14 32-32s-14.9-32-32-32zm33.1-208H238c-39 0-70 31-70 70 0 13 11 24 24 24s24-11 24-24c0-12 9.1-22 21.1-22h51.1c12.9 0 23.8 10 23.8 22 0 8-4 14.1-11 18.1L244 251c-8 5-12 13-12 21v16c0 13 11 24 24 24s24-11 24-24v-2l45.1-28c21-13 34-36 34-60 .9-39-30.1-70-70-70z"/></symbol><symbol viewBox="0 0 512 512" id="circle-user" xmlns="http://www.w3.org/2000/svg"><path d="M256 112c-48.6 0-88 39.4-88 88s39.4 88 88 88 88-39.4 88-88-39.4-88-88-88zm0 128c-22.06 0-40-17.95-40-40 0-22.1 17.9-40 40-40s40 17.94 40 40c0 22.1-17.9 40-40 40zm0-240C114.6 0 0 114.6 0 256s114.6 256 256 256 256-114.6 256-256S397.4 0 256 0zm0 464c-46.73 0-89.76-15.68-124.5-41.79C148.8 389 182.4 368 220.2 368h71.69c37.75 0 71.31 21.01 88.68 54.21C345.8 448.3 302.7 464 256 464zm160.2-75.5c-27-42.2-73-68.5-124.4-68.5h-71.6c-51.36 0-97.35 26.25-124.4 68.48C65.96 352.5 48 306.3 48 256c0-114.7 93.31-208 208-208s208 93.31 208 208c0 50.3-18 96.5-47.8 132.5z"/></symbol><symbol viewBox="0 0 320 512" id="close" xmlns="http://www.w3.org/2000/svg"><path d="M310.6 150.6c12.5-12.5 12.5-32.8 0-45.3s-32.8-12.5-45.3 0L160 210.7 54.6 105.4c-12.5-12.5-32.8-12.5-45.3 0s-12.5 32.8 0 45.3L114.7 256 9.4 361.4c-12.5 12.5-12.5 32.8 0 45.3s32.8 12.5 45.3 0L160 301.3l105.4 105.3c12.5 12.5 32.8 12.5 45.3 0s12.5-32.8 0-45.3L205.3 256l105.3-105.4z"/></symbol><symbol viewBox="0 0 576 512" id="contract" xmlns="http://www.w3.org/2000/svg"><path d="M64 0C28.7 0 0 28.7 0 64v384c0 35.3 28.7 64 64 64h256c35.3 0 64-28.7 64-64v-19.3c-2.7 1.1-5.4 2-8.2 2.7l-60.1 15c-3 .7-6 1.2-9 1.4-.9.1-1.8.2-2.7.2h-64c-6.1 0-11.6-3.4-14.3-8.8l-8.8-17.7c-1.7-3.4-5.1-5.5-8.8-5.5s-7.2 2.1-8.8 5.5l-8.8 17.7c-2.9 5.9-9.2 9.4-15.7 8.8s-12.1-5.1-13.9-11.3L144 381l-9.8 32.8c-6.1 20.3-24.8 34.2-46 34.2H80c-8.8 0-16-7.2-16-16s7.2-16 16-16h8.2c7.1 0 13.3-4.6 15.3-11.4l14.9-49.5c3.4-11.3 13.8-19.1 25.6-19.1s22.2 7.8 25.6 19.1l11.6 38.6c7.4-6.2 16.8-9.7 26.8-9.7 15.9 0 30.4 9 37.5 23.2l4.4 8.8h8.9c-3.1-8.8-3.7-18.4-1.4-27.8l15-60.1c2.8-11.3 8.6-21.5 16.8-29.7l94.8-94.8V160H256c-17.7 0-32-14.3-32-32V0H64zm192 0v128h128L256 0zm293.8 139.7c-15.6-15.6-40.9-15.6-56.6 0l-29.4 29.4 71 71 29.4-29.4c15.6-15.6 15.6-40.9 0-56.6l-14.4-14.4zM311.9 321c-4.1 4.1-7 9.2-8.4 14.9l-15 60.1c-1.4 5.5.2 11.2 4.2 15.2s9.7 5.6 15.2 4.2l60.1-15c5.6-1.4 10.8-4.3 14.9-8.4l129.2-129.3-71-71L311.9 321z"/></symbol><symbol viewBox="0 0 576 512" id="crown" xmlns="http://www.w3.org/2000/svg"><path d="M309 106c11.4-7 19-19.7 19-34 0-22.1-17.9-40-40-40s-40 17.9-40 40c0 14.4 7.6 27 19 34l-57.3 114.6c-9.1 18.2-32.7 23.4-48.6 10.7L72 160c5-6.7 8-15 8-24 0-22.1-17.9-40-40-40S0 113.9 0 136s17.9 40 40 40h.7l45.7 251.4c5.5 30.4 32 52.6 63 52.6h277.2c30.9 0 57.4-22.1 63-52.6L535.3 176h.7c22.1 0 40-17.9 40-40s-17.9-40-40-40-40 17.9-40 40c0 9 3 17.3 8 24l-89.1 71.3c-15.9 12.7-39.5 7.5-48.6-10.7L309 106z"/></symbol><symbol viewBox="0 0 448 512" id="ellipsis" xmlns="http://www.w3.org/2000/svg"><path d="M120 256c0 30.9-25.1 56-56 56S8 286.9 8 256s25.1-56 56-56 56 25.1 56 56zm160 0c0 30.9-25.1 56-56 56s-56-25.1-56-56 25.1-56 56-56 56 25.1 56 56zm104 56c-30.9 0-56-25.1-56-56s25.1-56 56-56 56 25.1 56 56-25.1 56-56 56z"/></symbol><symbol viewBox="0 0 512 512" id="envelope" xmlns="http://www.w3.org/2000/svg"><path d="M48 64C21.5 64 0 85.5 0 112c0 15.1 7.1 29.3 19.2 38.4l217.6 163.2c11.4 8.5 27 8.5 38.4 0l217.6-163.2c12.1-9.1 19.2-23.3 19.2-38.4 0-26.5-21.5-48-48-48H48zM0 176v208c0 35.3 28.7 64 64 64h384c35.3 0 64-28.7 64-64V176L294.4 339.2a63.9 63.9 0 0 1-76.8 0L0 176z"/></symbol><symbol viewBox="0 0 576 512" id="eye" xmlns="http://www.w3.org/2000/svg"><path d="M288 32c-80.8 0-145.5 36.8-192.6 80.6C48.6 156 17.3 208 2.5 243.7c-3.3 7.9-3.3 16.7 0 24.6C17.3 304 48.6 356 95.4 399.4 142.5 443.2 207.2 480 288 480s145.5-36.8 192.6-80.6c46.8-43.5 78.1-95.4 93-131.1 3.3-7.9 3.3-16.7 0-24.6-14.9-35.7-46.2-87.7-93-131.1C433.5 68.8 368.8 32 288 32zm144 224c0 79.5-64.5 144-144 144s-144-64.5-144-144 64.5-144 144-144 144 64.5 144 144zm-144-64c0 35.3-28.7 64-64 64-11.5 0-22.3-3-31.6-8.4-.2 2.8-.4 5.5-.4 8.4 0 53 43 96 96 96s96-43 96-96-43-96-96-96c-2.8 0-5.6.1-8.4.4 5.3 9.3 8.4 20.1 8.4 31.6z"/></symbol><symbol viewBox="0 0 640 512" id="eye-slash" xmlns="http://www.w3.org/2000/svg"><path d="M38.8 5.1C28.4-3.1 13.3-1.2 5.1 9.2s-6.3 25.5 4.1 33.7l592 464c10.4 8.2 25.5 6.3 33.7-4.1s6.3-25.5-4.1-33.7l-105.2-82.4c39.6-40.6 66.4-86.1 79.9-118.4 3.3-7.9 3.3-16.7 0-24.6-14.9-35.7-46.2-87.7-93-131.1C465.5 68.8 400.8 32 320 32c-68.2 0-125 26.3-169.3 60.8L38.8 5.1zm184.3 144.4c25.5-23.3 59.6-37.5 96.9-37.5 79.5 0 144 64.5 144 144 0 24.9-6.3 48.3-17.4 68.7L408 294.5c5.2-11.8 8-24.8 8-38.5 0-53-43-96-96-96-2.8 0-5.6.1-8.4.4 5.3 9.3 8.4 20.1 8.4 31.6 0 10.2-2.4 19.8-6.6 28.3l-90.3-70.8zm223.1 298L373 389.9c-16.4 6.5-34.3 10.1-53 10.1-79.5 0-144-64.5-144-144 0-6.9.5-13.6 1.4-20.2l-94.3-74.3c-22.8 29.7-39.1 59.3-48.6 82.2-3.3 7.9-3.3 16.7 0 24.6 14.9 35.7 46.2 87.7 93 131.1 47 43.8 111.7 80.6 192.5 80.6 47.8 0 89.9-12.9 126.2-32.5z"/></symbol><symbol viewBox="0 0 384 512" id="file" xmlns="http://www.w3.org/2000/svg"><path d="M0 64C0 28.65 28.65 0 64 0h165.5c17 0 33.2 6.743 45.2 18.75l90.6 90.55c12 12 18.7 28.2 18.7 45.2V448c0 35.3-28.7 64-64 64H64c-35.35 0-64-28.7-64-64V64zm336 384V160h-80c-17.7 0-32-14.3-32-32V48H64c-8.84 0-16 7.16-16 16v384c0 8.8 7.16 16 16 16h256c8.8 0 16-7.2 16-16z"/></symbol><symbol viewBox="0 0 384 512" id="file-excel" xmlns="http://www.w3.org/2000/svg"><path d="m365.3 93.38-74.63-74.64C278.6 6.742 262.3 0 245.4 0H64C28.65 0 0 28.65 0 64l.006 384c0 35.34 28.65 64 64 64H320c35.2 0 64-28.8 64-64V138.6c0-16.9-6.7-33.2-18.7-45.22zM336 448c0 8.836-7.164 16-16 16H64.02c-8.838 0-16-7.164-16-16L48 64.13c0-8.836 7.164-16 16-16h160V128c0 17.67 14.33 32 32 32h79.1v288zM229.1 233.3 192 280.9l-37.1-47.6c-8.1-10.5-23.1-12.4-33.6-4.2-10.5 8.1-12.4 23.2-4.2 33.7l44.5 57.2-44.53 57.25c-8.156 10.47-6.25 25.56 4.188 33.69C125.7 414.3 130.8 416 135.1 416c7.156 0 14.25-3.188 18.97-9.25L192 359.1l37.06 47.65A24.089 24.089 0 0 0 248 416c5.125 0 10.31-1.656 14.72-5.062 10.44-8.125 12.34-23.22 4.188-33.69L222.4 320l44.53-57.25c8.156-10.47 6.25-25.56-4.188-33.69-10.542-8.16-25.542-6.26-33.642 4.24z"/></symbol><symbol viewBox="0 0 384 512" id="file-image" xmlns="http://www.w3.org/2000/svg"><path d="m365.3 93.38-74.63-74.64C278.6 6.742 262.3 0 245.4 0H64C28.65 0 0 28.65 0 64l.006 384c0 35.34 28.65 64 64 64H320c35.2 0 64-28.8 64-64V138.6c0-16.9-6.7-33.2-18.7-45.22zM336 448c0 8.836-7.164 16-16 16H64.02c-8.838 0-16-7.164-16-16L48 64.13c0-8.836 7.164-16 16-16h160V128c0 17.67 14.33 32 32 32h79.1v288zM215.3 292c-4.68 0-9.051 2.34-11.65 6.234L164 357.8l-11.68-17.53A13.937 13.937 0 0 0 140.7 334c-4.682 0-9.053 2.34-11.65 6.234l-46.67 70a13.996 13.996 0 0 0-.695 14.37C84.09 429.2 88.84 432 93.1 432h196c5.163 0 9.907-2.844 12.34-7.395a13.995 13.995 0 0 0-.695-14.37l-74.67-112C224.4 294.3 220 292 215.3 292zm-87.3-4c17.67 0 32-14.33 32-32s-14.3-32-32-32-32 14.3-32 32 14.3 32 32 32z"/></symbol><symbol viewBox="0 0 384 512" id="file-pdf" xmlns="http://www.w3.org/2000/svg"><path d="M320 464c8.8 0 16-7.2 16-16v-32h48v32c0 35.3-28.7 64-64 64H64c-35.35 0-64-28.7-64-64v-32h48v32c0 8.8 7.16 16 16 16h256zm-64-304c-17.7 0-32-14.3-32-32V48H64c-8.84 0-16 7.16-16 16v128H0V64C0 28.65 28.65 0 64 0h165.5c17 0 33.2 6.743 45.2 18.75l90.6 90.55c12 12 18.7 28.2 18.7 45.2V192h-48v-32h-80zM88 224c30.9 0 56 25.1 56 56s-25.1 56-56 56h-8v32c0 8.8-7.16 16-16 16s-16-7.2-16-16V240c0-8.8 7.16-16 16-16h24zm24 56c0-13.3-10.7-24-24-24h-8v48h8c13.3 0 24-10.7 24-24zm48-40c0-8.8 7.2-16 16-16h24c26.5 0 48 21.5 48 48v64c0 26.5-21.5 48-48 48h-24c-8.8 0-16-7.2-16-16V240zm32 112h8c8.8 0 16-7.2 16-16v-64c0-8.8-7.2-16-16-16h-8v96zm144-128c8.8 0 16 7.2 16 16s-7.2 16-16 16h-32v32h32c8.8 0 16 7.2 16 16s-7.2 16-16 16h-32v48c0 8.8-7.2 16-16 16s-16-7.2-16-16V240c0-8.8 7.2-16 16-16h48z"/></symbol><symbol viewBox="0 0 384 512" id="file-word" xmlns="http://www.w3.org/2000/svg"><path d="m365.3 93.38-74.63-74.64C278.6 6.742 262.3 0 245.4 0H64C28.65 0 0 28.65 0 64l.006 384c0 35.34 28.65 64 64 64H320c35.2 0 64-28.8 64-64V138.6c0-16.9-6.7-33.2-18.7-45.22zM336 448c0 8.836-7.164 16-16 16H64.02c-8.838 0-16-7.164-16-16L48 64.13c0-8.836 7.164-16 16-16h160V128c0 17.67 14.33 32 32 32h79.1v288zM214.6 248c-3.3-9.6-12.4-16-22.6-16s-19.25 6.406-22.62 16l-24.68 70.1-25.89-77.66C114.6 227.8 101 221.2 88.41 225.2c-12.58 4.2-19.36 17.8-15.18 30.4l48 144c3.27 9.7 12.27 16.3 22.57 16.4 10.17 0 19.45-6.406 22.83-16L192 328.1l25.4 71.9c3.4 9.6 12.4 16 22.6 16 10.27-.094 19.53-6.688 22.77-16.41l48-144c4.188-12.59-2.594-26.16-15.17-30.38-12.61-4.125-26.2 2.594-30.36 15.19l-25.89 77.66L214.6 248z"/></symbol><symbol viewBox="0 0 384 512" id="file-zipper" xmlns="http://www.w3.org/2000/svg"><path d="m365.3 93.38-74.63-74.64C278.6 6.742 262.3 0 245.4 0H64C28.65 0 0 28.65 0 64l.006 384c0 35.34 28.65 64 64 64H320c35.2 0 64-28.8 64-64V138.6c0-16.9-6.7-33.2-18.7-45.22zM336 448c0 8.836-7.164 16-16 16H64.02c-8.838 0-16-7.164-16-16L48 64.13c0-8.836 7.164-16 16-16h48V64h64V48.13h48.01L224 128c0 17.67 14.33 32 32 32h79.1v288zM176 96h-64v32h64V96zm0 64h-64v32h64v-32zm0 64h-64L81.44 340.5c-7.93 39 22.26 75.5 62.86 75.5 40.26 0 70.45-36.3 62.68-75.15L176 224zm-16 144h-32c-8.836 0-16-7.164-16-16s7.164-16 16-16h32c8.836 0 16 7.164 16 16s-7.2 16-16 16z"/></symbol><symbol viewBox="0 0 512 512" id="gear" xmlns="http://www.w3.org/2000/svg"><path d="M495.9 166.6c3.2 8.7.5 18.4-6.4 24.6l-43.3 39.4c1.1 8.3 1.7 16.8 1.7 25.4s-.6 17.1-1.7 25.4l43.3 39.4c6.9 6.2 9.6 15.9 6.4 24.6-4.4 11.9-9.7 23.3-15.8 34.3l-4.7 8.1c-6.6 11-14 21.4-22.1 31.2-5.9 7.2-15.7 9.6-24.5 6.8l-55.7-17.7c-13.4 10.3-28.2 18.9-44 25.4l-12.5 57.1c-2 9.1-9 16.3-18.2 17.8-13.8 2.3-28 3.5-42.5 3.5s-28.7-1.2-42.5-3.5c-9.2-1.5-16.2-8.7-18.2-17.8l-12.5-57.1c-15.8-6.5-30.6-15.1-44-25.4l-55.6 17.8c-8.8 2.8-18.6.3-24.5-6.8-8.1-9.8-15.5-20.2-22.1-31.2l-4.7-8.1c-6.1-11-11.4-22.4-15.8-34.3-3.2-8.7-.5-18.4 6.4-24.6l43.3-39.4c-1.1-8.4-1.7-16.9-1.7-25.5s.6-17.1 1.7-25.4l-43.3-39.4c-6.9-6.2-9.6-15.9-6.4-24.6 4.4-11.9 9.7-23.3 15.8-34.3l4.7-8.1c6.6-11 14-21.4 22.1-31.2 5.9-7.2 15.7-9.6 24.5-6.8l55.7 17.7c13.4-10.3 28.2-18.9 44-25.4l12.5-57.1c2-9.1 9-16.3 18.2-17.8C227.3 1.2 241.5 0 256 0s28.7 1.2 42.5 3.5c9.2 1.5 16.2 8.7 18.2 17.8l12.5 57.1c15.8 6.5 30.6 15.1 44 25.4l55.7-17.7c8.8-2.8 18.6-.3 24.5 6.8 8.1 9.8 15.5 20.2 22.1 31.2l4.7 8.1c6.1 11 11.4 22.4 15.8 34.3zM256 336c44.2 0 80-35.8 80-80s-35.8-80-80-80-80 35.8-80 80 35.8 80 80 80z"/></symbol><symbol viewBox="0 0 512 512" id="headset" xmlns="http://www.w3.org/2000/svg"><path d="M256 48C141.1 48 48 141.1 48 256v40c0 13.3-10.7 24-24 24S0 309.3 0 296v-40C0 114.6 114.6 0 256 0s256 114.6 256 256v144.1c0 48.6-39.4 88-88.1 88l-110.3-.1c-8.3 14.3-23.8 24-41.6 24h-32c-26.5 0-48-21.5-48-48s21.5-48 48-48h32c17.8 0 33.3 9.7 41.6 24l110.4.1c22.1 0 40-17.9 40-40V256c0-114.9-93.1-208-208-208zM144 208h16c17.7 0 32 14.3 32 32v112c0 17.7-14.3 32-32 32h-16c-35.3 0-64-28.7-64-64v-48c0-35.3 28.7-64 64-64zm224 0c35.3 0 64 28.7 64 64v48c0 35.3-28.7 64-64 64h-16c-17.7 0-32-14.3-32-32V240c0-17.7 14.3-32 32-32h16z"/></symbol><symbol viewBox="0 0 576 512" id="id-card" xmlns="http://www.w3.org/2000/svg"><path d="M368 344h96c13.25 0 24-10.75 24-24s-10.75-24-24-24h-96c-13.25 0-24 10.75-24 24s10.8 24 24 24zm-160-24c35.35 0 64-28.65 64-64s-28.65-64-64-64-64 28.65-64 64c0 35.3 28.7 64 64 64zM512 32H64C28.65 32 0 60.65 0 96v320c0 35.35 28.65 64 64 64h448c35.35 0 64-28.65 64-64V96c0-35.35-28.7-64-64-64zm16 384c0 8.822-7.178 16-16 16H320c0-44.18-35.82-80-80-80h-64c-44.2 0-80 35.8-80 80H64c-8.822 0-16-7.178-16-16V160h480v256zM368 264h96c13.25 0 24-10.75 24-24s-10.75-24-24-24h-96c-13.25 0-24 10.75-24 24s10.8 24 24 24z"/></symbol><symbol viewBox="0 0 512 512" id="inbox" xmlns="http://www.w3.org/2000/svg"><path d="M121 32c-29.4 0-55 20-62.1 48.5l-57 227.9C.6 313.5 0 318.7 0 323.9V416c0 35.3 28.7 64 64 64h384c35.3 0 64-28.7 64-64v-92.1c0-5.2-.6-10.4-1.9-15.5l-57-227.9C446 52 420.4 32 391 32H121zm0 64h270l48 192h-51.2c-12.1 0-23.2 6.8-28.6 17.7l-14.3 28.6c-5.4 10.8-16.5 17.7-28.6 17.7H195.8c-12.1 0-23.2-6.8-28.6-17.7l-14.3-28.6c-5.4-10.8-16.5-17.7-28.6-17.7H73l48-192z"/></symbol><symbol viewBox="0 0 640 512" id="language" xmlns="http://www.w3.org/2000/svg"><path d="M0 128c0-35.3 28.7-64 64-64h512c35.3 0 64 28.7 64 64v256c0 35.3-28.7 64-64 64H64c-35.3 0-64-28.7-64-64V128zm320 0v256h256V128H320zm-141.7 47.9c-3.2-7.2-10.4-11.9-18.3-11.9s-15.1 4.7-18.3 11.9l-64 144c-4.5 10.1.1 21.9 10.2 26.4s21.9-.1 26.4-10.2l8.9-20.1h73.6l8.9 20.1c4.5 10.1 16.3 14.6 26.4 10.2s14.6-16.3 10.2-26.4l-64-144zM160 233.2l19 42.8h-38l19-42.8zM448 164c11 0 20 9 20 20v4h60c11 0 20 9 20 20s-9 20-20 20h-2l-1.6 4.5c-8.9 24.4-22.4 46.6-39.6 65.4.9.6 1.8 1.1 2.7 1.6l18.9 11.3c9.5 5.7 12.5 18 6.9 27.4s-18 12.5-27.4 6.9L467 333.8c-4.5-2.7-8.8-5.5-13.1-8.5-10.6 7.5-21.9 14-34 19.4l-3.6 1.6c-10.1 4.5-21.9-.1-26.4-10.2s.1-21.9 10.2-26.4l3.6-1.6c6.4-2.9 12.6-6.1 18.5-9.8L410 286.1c-7.8-7.8-7.8-20.5 0-28.3s20.5-7.8 28.3 0l14.6 14.6.5.5c12.4-13.1 22.5-28.3 29.8-45H376c-11 0-20-9-20-20s9-20 20-20h52v-4c0-11 9-20 20-20z"/></symbol><symbol viewBox="0 0 576 512" id="logout" xmlns="http://www.w3.org/2000/svg"><path d="M534.6 278.6c12.5-12.5 12.5-32.8 0-45.3l-128-128c-12.5-12.5-32.8-12.5-45.3 0s-12.5 32.8 0 45.3l73.4 73.4H224c-17.7 0-32 14.3-32 32s14.3 32 32 32h210.7l-73.4 73.4c-12.5 12.5-12.5 32.8 0 45.3s32.8 12.5 45.3 0l128-128zM192 96c17.7 0 32-14.3 32-32s-14.3-32-32-32h-64c-53 0-96 43-96 96v256c0 53 43 96 96 96h64c17.7 0 32-14.3 32-32s-14.3-32-32-32h-64c-17.7 0-32-14.3-32-32V128c0-17.7 14.3-32 32-32h64z"/></symbol><symbol viewBox="0 0 640 512" id="organization" xmlns="http://www.w3.org/2000/svg"><path d="M184 88c0 30.9-25.1 56-56 56s-56-25.1-56-56 25.1-56 56-56 56 25.1 56 56zM64 245.7c-10 11.2-16 26.1-16 42.3s6 31.1 16 42.3v-84.6zm144.4-49.3C178.7 222.7 160 261.2 160 304c0 34.3 12 65.8 32 90.5V416c0 17.7-14.3 32-32 32H96c-17.7 0-32-14.3-32-32v-26.8C26.2 371.2 0 332.7 0 288c0-61.9 50.1-112 112-112h32c24 0 46.2 7.5 64.4 20.3zM448 416v-21.5c20-24.7 32-56.2 32-90.5 0-42.8-18.7-81.3-48.4-107.7C449.8 183.5 472 176 496 176h32c61.9 0 112 50.1 112 112 0 44.7-26.2 83.2-64 101.2V416c0 17.7-14.3 32-32 32h-64c-17.7 0-32-14.3-32-32zM568 88c0 30.9-25.1 56-56 56s-56-25.1-56-56 25.1-56 56-56 56 25.1 56 56zm8 157.7v84.7c10-11.3 16-26.1 16-42.3s-6-31.1-16-42.3zM320 160c-35.3 0-64-28.7-64-64s28.7-64 64-64 64 28.7 64 64-28.7 64-64 64zm-80 144c0 16.2 6 31 16 42.3v-84.6c-10 11.3-16 26.1-16 42.3zm144-42.3v84.7c10-11.3 16-26.1 16-42.3s-6-31.1-16-42.3zm64 42.3c0 44.7-26.2 83.2-64 101.2V448c0 17.7-14.3 32-32 32h-64c-17.7 0-32-14.3-32-32v-42.8c-37.8-18-64-56.5-64-101.2 0-61.9 50.1-112 112-112h32c61.9 0 112 50.1 112 112z"/></symbol><symbol viewBox="0 0 512 512" id="palette" xmlns="http://www.w3.org/2000/svg"><path d="M512 256v2.7c-.4 36.5-33.6 61.3-70.1 61.3H344c-26.5 0-48 21.5-48 48 0 3.4.4 6.7 1 9.9 2.1 10.2 6.5 20 10.8 29.9 6.1 13.8 12.1 27.5 12.1 42 0 31.8-21.6 60.7-53.4 62-3.5.1-7 .2-10.6.2C114.6 512 0 397.4 0 256S114.6 0 256 0s256 114.6 256 256zm-384 32c0-17.7-14.3-32-32-32s-32 14.3-32 32 14.3 32 32 32 32-14.3 32-32zm0-96c17.7 0 32-14.3 32-32s-14.3-32-32-32-32 14.3-32 32 14.3 32 32 32zm160-96c0-17.7-14.3-32-32-32s-32 14.3-32 32 14.3 32 32 32 32-14.3 32-32zm96 96c17.7 0 32-14.3 32-32s-14.3-32-32-32-32 14.3-32 32 14.3 32 32 32z"/></symbol><symbol viewBox="0 0 448 512" id="plus" xmlns="http://www.w3.org/2000/svg"><path d="M256 80c0-17.7-14.3-32-32-32s-32 14.3-32 32v144H48c-17.7 0-32 14.3-32 32s14.3 32 32 32h144v144c0 17.7 14.3 32 32 32s32-14.3 32-32V288h144c17.7 0 32-14.3 32-32s-14.3-32-32-32H256V80z"/></symbol><symbol viewBox="0 0 448 512" id="priority" xmlns="http://www.w3.org/2000/svg"><path d="M349.4 44.6c5.9-13.7 1.5-29.7-10.6-38.5s-28.6-8-39.9 1.8l-256 224c-10 8.8-13.6 22.9-8.9 35.3S50.7 288 64 288h111.5L98.6 467.4c-5.9 13.7-1.5 29.7 10.6 38.5s28.6 8 39.9-1.8l256-224c10-8.8 13.6-22.9 8.9-35.3s-16.6-20.7-30-20.7H272.5l76.9-179.5z"/></symbol><symbol viewBox="0 0 576 512" id="role" xmlns="http://www.w3.org/2000/svg"><path d="M256 0h64c17.7 0 32 14.3 32 32v64c0 17.7-14.3 32-32 32h-64c-17.7 0-32-14.3-32-32V32c0-17.7 14.3-32 32-32zM64 64h128v48c0 26.5 21.5 48 48 48h96c26.5 0 48-21.5 48-48V64h128c35.3 0 64 28.7 64 64v320c0 35.3-28.7 64-64 64H64c-35.3 0-64-28.7-64-64V128c0-35.3 28.7-64 64-64zm112 373.3c0 5.9 4.8 10.7 10.7 10.7h202.6c5.9 0 10.7-4.8 10.7-10.7 0-29.5-23.9-53.3-53.3-53.3H229.3c-29.5 0-53.3 23.9-53.3 53.3zM288 352c35.3 0 64-28.7 64-64s-28.7-64-64-64-64 28.7-64 64 28.7 64 64 64z"/></symbol><symbol viewBox="0 0 512 512" id="search" xmlns="http://www.w3.org/2000/svg"><path d="M416 208c0 45.9-14.9 88.3-40 122.7l126.6 126.7c12.5 12.5 12.5 32.8 0 45.3s-32.8 12.5-45.3 0L330.7 376c-34.4 25.2-76.8 40-122.7 40C93.1 416 0 322.9 0 208S93.1 0 208 0s208 93.1 208 208zM208 352c79.5 0 144-64.5 144-144S287.5 64 208 64 64 128.5 64 208s64.5 144 144 144z"/></symbol><symbol viewBox="0 0 512 512" id="status" xmlns="http://www.w3.org/2000/svg"><path d="M256 512c141.4 0 256-114.6 256-256S397.4 0 256 0 0 114.6 0 256s114.6 256 256 256zm0-160c-53 0-96-43-96-96s43-96 96-96 96 43 96 96-43 96-96 96z"/></symbol><symbol viewBox="0 0 576 512" id="ticket" xmlns="http://www.w3.org/2000/svg"><path d="M0 128c0-35.3 28.7-64 64-64h448c35.3 0 64 28.7 64 64v80c-26.5 0-48 21.5-48 48s21.5 48 48 48v80c0 35.3-28.7 64-64 64H64c-35.3 0-64-28.7-64-64v-80c26.5 0 48-21.5 48-48s-21.5-48-48-48v-80z"/></symbol><symbol viewBox="0 0 512 512" id="triangle-exclamation-warning" xmlns="http://www.w3.org/2000/svg"><path fill="#ffb224" d="M256 32c14.2 0 27.3 7.5 34.5 19.8l216 368c7.3 12.4 7.3 27.7.2 40.1S486.3 480 472 480H40c-14.3 0-27.6-7.7-34.7-20.1s-7-27.8.2-40.1l216-368C228.7 39.5 241.8 32 256 32zm0 128c-13.3 0-24 10.7-24 24v112c0 13.3 10.7 24 24 24s24-10.7 24-24V184c0-13.3-10.7-24-24-24zm32 224c0-17.7-14.3-32-32-32s-32 14.3-32 32 14.3 32 32 32 32-14.3 32-32z"/></symbol><symbol viewBox="0 0 448 512" id="user" xmlns="http://www.w3.org/2000/svg"><path d="M224 256c70.7 0 128-57.3 128-128S294.7 0 224 0 96 57.3 96 128s57.3 128 128 128zm-45.7 48C79.8 304 0 383.8 0 482.3 0 498.7 13.3 512 29.7 512h388.6c16.4 0 29.7-13.3 29.7-29.7 0-98.5-79.8-178.3-178.3-178.3h-91.4z"/></symbol><symbol viewBox="0 0 640 512" id="user-group" xmlns="http://www.w3.org/2000/svg"><path d="M352 128c0 70.7-57.3 128-128 128S96 198.7 96 128 153.3 0 224 0s128 57.3 128 128zM0 482.3C0 383.8 79.8 304 178.3 304h91.4c98.5 0 178.3 79.8 178.3 178.3 0 16.4-13.3 29.7-29.7 29.7H29.7C13.3 512 0 498.7 0 482.3zM609.3 512H471.4c5.4-9.4 8.6-20.3 8.6-32v-8c0-60.7-27.1-115.2-69.8-151.8 2.4-.1 4.7-.2 7.1-.2h61.4c89.1 0 161.3 72.2 161.3 161.3 0 17-13.8 30.7-30.7 30.7zM432 256c-31 0-59-12.6-79.3-32.9 19.7-26.6 31.3-59.5 31.3-95.1 0-26.8-6.6-52.1-18.3-74.3C384.3 40.1 407.2 32 432 32c61.9 0 112 50.1 112 112s-50.1 112-112 112z"/></symbol><symbol viewBox="0 0 448 512" id="user-secret" xmlns="http://www.w3.org/2000/svg"><path d="M224 16c-6.7 0-10.8-2.8-15.5-6.1C201.9 5.4 194 0 176 0c-30.5 0-52 43.7-66 89.4-47.3 8.7-78 22.8-78 38.6 0 14.3 25 27.1 64.6 35.9-.4 4-.6 8-.6 12.1 0 17 3.3 33.2 9.3 48H45.4C38 224 32 230 32 237.4c0 1.7.3 3.4 1 5l38.8 96.9C28.2 371.8 0 423.8 0 482.3 0 498.7 13.3 512 29.7 512h388.6c16.4 0 29.7-13.3 29.7-29.7 0-58.5-28.2-110.4-71.7-143l38.7-96.9c.6-1.6 1-3.3 1-5 0-7.4-6-13.4-13.4-13.4h-59.9c6-14.8 9.3-31 9.3-48 0-4.1-.2-8.1-.6-12.1C391 155.1 416 142.3 416 128c0-15.8-30.7-29.9-78-38.6C324 43.7 302.5 0 272 0c-18 0-25.9 5.4-32.5 9.9-4.7 3.3-8.8 6.1-15.5 6.1zm56 208h-12.4c-16.5 0-31.1-10.6-36.3-26.2-2.3-7-12.2-7-14.5 0-5.2 15.6-19.9 26.2-36.3 26.2H168c-22.1 0-40-17.9-40-40v-14.4c28.2 4.1 61 6.4 96 6.4s67.8-2.3 96-6.4V184c0 22.1-17.9 40-40 40zm-88 96 16 32-32 128-48-192 64 32zm128-32-48 192-32-128 16-32 64-32z"/></symbol><symbol viewBox="0 0 448 512" id="user-secret-light" xmlns="http://www.w3.org/2000/svg"><path fill="#ecedee" d="M224 16c-6.7 0-10.8-2.8-15.5-6.1C201.9 5.4 194 0 176 0c-30.5 0-52 43.7-66 89.4-47.3 8.7-78 22.8-78 38.6 0 14.3 25 27.1 64.6 35.9-.4 4-.6 8-.6 12.1 0 17 3.3 33.2 9.3 48H45.4C38 224 32 230 32 237.4c0 1.7.3 3.4 1 5l38.8 96.9C28.2 371.8 0 423.8 0 482.3 0 498.7 13.3 512 29.7 512h388.6c16.4 0 29.7-13.3 29.7-29.7 0-58.5-28.2-110.4-71.7-143l38.7-96.9c.6-1.6 1-3.3 1-5 0-7.4-6-13.4-13.4-13.4h-59.9c6-14.8 9.3-31 9.3-48 0-4.1-.2-8.1-.6-12.1C391 155.1 416 142.3 416 128c0-15.8-30.7-29.9-78-38.6C324 43.7 302.5 0 272 0c-18 0-25.9 5.4-32.5 9.9-4.7 3.3-8.8 6.1-15.5 6.1zm56 208h-12.4c-16.5 0-31.1-10.6-36.3-26.2-2.3-7-12.2-7-14.5 0-5.2 15.6-19.9 26.2-36.3 26.2H168c-22.1 0-40-17.9-40-40v-14.4c28.2 4.1 61 6.4 96 6.4s67.8-2.3 96-6.4V184c0 22.1-17.9 40-40 40zm-88 96 16 32-32 128-48-192 64 32zm128-32-48 192-32-128 16-32 64-32z"/></symbol><symbol viewBox="0 0 512 512" id="wrench" xmlns="http://www.w3.org/2000/svg"><path d="M352 320c88.4 0 160-71.6 160-160 0-15.3-2.2-30.1-6.2-44.2-3.1-10.8-16.4-13.2-24.3-5.3l-76.8 76.8c-3 3-7.1 4.7-11.3 4.7H336c-8.8 0-16-7.2-16-16v-57.4c0-4.2 1.7-8.3 4.7-11.3l76.8-76.8c7.9-7.9 5.4-21.2-5.3-24.3C382.1 2.2 367.3 0 352 0c-88.4 0-160 71.6-160 160 0 19.1 3.4 37.5 9.5 54.5L19.9 396.1C7.2 408.8 0 426.1 0 444.1 0 481.6 30.4 512 67.9 512c18 0 35.3-7.2 48-19.9l181.6-181.6c17 6.2 35.4 9.5 54.5 9.5zM80 456c-13.3 0-24-10.7-24-24s10.7-24 24-24 24 10.7 24 24-10.7 24-24 24z"/></symbol></svg>