<?xml version="1.0" encoding="utf-8"?><svg xmlns="http://www.w3.org/2000/svg" xmlns:xlink="http://www.w3.org/1999/xlink"><symbol viewBox="0 0 448 512" id="angle-down" xmlns="http://www.w3.org/2000/svg"><path d="M201.4 374.6c12.5 12.5 32.8 12.5 45.3 0l160-160c12.5-12.5 12.5-32.8 0-45.3s-32.8-12.5-45.3 0L224 306.7 86.6 169.4c-12.5-12.5-32.8-12.5-45.3 0s-12.5 32.8 0 45.3l160 160z"/></symbol><symbol viewBox="0 0 448 512" id="angle-down-light" xmlns="http://www.w3.org/2000/svg"><path fill="#ecedee" d="M201.4 374.6c12.5 12.5 32.8 12.5 45.3 0l160-160c12.5-12.5 12.5-32.8 0-45.3s-32.8-12.5-45.3 0L224 306.7 86.6 169.4c-12.5-12.5-32.8-12.5-45.3 0s-12.5 32.8 0 45.3l160 160z"/></symbol><symbol viewBox="0 0 448 512" id="angle-down-secondary" xmlns="http://www.w3.org/2000/svg"><path fill="#687076" d="M201.4 374.6c12.5 12.5 32.8 12.5 45.3 0l160-160c12.5-12.5 12.5-32.8 0-45.3s-32.8-12.5-45.3 0L224 306.7 86.6 169.4c-12.5-12.5-32.8-12.5-45.3 0s-12.5 32.8 0 45.3l160 160z"/></symbol><symbol viewBox="0 0 448 512" id="angle-down-secondary-light" xmlns="http://www.w3.org/2000/svg"><path fill="#9ba1a6" d="M201.4 374.6c12.5 12.5 32.8 12.5 45.3 0l160-160c12.5-12.5 12.5-32.8 0-45.3s-32.8-12.5-45.3 0L224 306.7 86.6 169.4c-12.5-12.5-32.8-12.5-45.3 0s-12.5 32.8 0 45.3l160 160z"/></symbol><symbol viewBox="0 0 448 512" id="arrow-right" xmlns="http://www.w3.org/2000/svg"><path d="M438.6 278.6c12.5-12.5 12.5-32.8 0-45.3l-160-160c-12.5-12.5-32.8-12.5-45.3 0s-12.5 32.8 0 45.3L338.8 224H32c-17.7 0-32 14.3-32 32s14.3 32 32 32h306.7L233.4 393.4c-12.5 12.5-12.5 32.8 0 45.3s32.8 12.5 45.3 0l160-160z"/></symbol><symbol viewBox="0 0 448 512" id="bars" xmlns="http://www.w3.org/2000/svg"><path d="M0 96c0-17.7 14.3-32 32-32h384c17.7 0 32 14.3 32 32s-14.3 32-32 32H32c-17.7 0-32-14.3-32-32zm0 160c0-17.7 14.3-32 32-32h384c17.7 0 32 14.3 32 32s-14.3 32-32 32H32c-17.7 0-32-14.3-32-32zm448 160c0 17.7-14.3 32-32 32H32c-17.7 0-32-14.3-32-32s14.3-32 32-32h384c17.7 0 32 14.3 32 32z"/></symbol><symbol viewBox="0 0 512 512" id="check" xmlns="http://www.w3.org/2000/svg"><path d="M470.6 105.4c12.5 12.5 12.5 32.8 0 45.3l-256 256c-12.5 12.5-32.8 12.5-45.3 0l-128-128c-12.5-12.5-12.5-32.8 0-45.3s32.8-12.5 45.3 0L192 338.7l233.4-233.3c12.5-12.5 32.8-12.5 45.3 0z"/></symbol><symbol viewBox="0 0 512 512" id="circle-check-success" xmlns="http://www.w3.org/2000/svg"><path fill="#30a46c" d="M256 512c141.4 0 256-114.6 256-256S397.4 0 256 0 0 114.6 0 256s114.6 256 256 256zm113-303L241 337c-9.4 9.4-24.6 9.4-33.9 0l-64-64c-9.4-9.4-9.4-24.6 0-33.9s24.6-9.4 33.9 0l47 47L335 175c9.4-9.4 24.6-9.4 33.9 0s9.4 24.6 0 33.9z"/></symbol><symbol viewBox="0 0 512 512" id="circle-exclamation-error" xmlns="http://www.w3.org/2000/svg"><path fill="#e54d2e" d="M256 512c141.4 0 256-114.6 256-256S397.4 0 256 0 0 114.6 0 256s114.6 256 256 256zm0-384c13.3 0 24 10.7 24 24v112c0 13.3-10.7 24-24 24s-24-10.7-24-24V152c0-13.3 10.7-24 24-24zm32 224c0 17.7-14.3 32-32 32s-32-14.3-32-32 14.3-32 32-32 32 14.3 32 32z"/></symbol><symbol viewBox="0 0 512 512" id="circle-info-info" xmlns="http://www.w3.org/2000/svg"><path fill="#0078a1" d="M256 512c141.4 0 256-114.6 256-256S397.4 0 256 0 0 114.6 0 256s114.6 256 256 256zm-40-176h24v-64h-24c-13.3 0-24-10.7-24-24s10.7-24 24-24h48c13.3 0 24 10.7 24 24v88h8c13.3 0 24 10.7 24 24s-10.7 24-24 24h-80c-13.3 0-24-10.7-24-24s10.7-24 24-24zm40-144c-17.7 0-32-14.3-32-32s14.3-32 32-32 32 14.3 32 32-14.3 32-32 32z"/></symbol><symbol viewBox="0 0 512 512" id="circle-question" xmlns="http://www.w3.org/2000/svg"><path d="M256 0C114.6 0 0 114.6 0 256s114.6 256 256 256 256-114.6 256-256S397.4 0 256 0zm0 464c-114.7 0-208-93.31-208-208S141.3 48 256 48s208 93.31 208 208-93.3 208-208 208zm0-128c-18 0-32 14-32 32s13.1 32 32 32c17.1 0 32-14 32-32s-14.9-32-32-32zm33.1-208H238c-39 0-70 31-70 70 0 13 11 24 24 24s24-11 24-24c0-12 9.1-22 21.1-22h51.1c12.9 0 23.8 10 23.8 22 0 8-4 14.1-11 18.1L244 251c-8 5-12 13-12 21v16c0 13 11 24 24 24s24-11 24-24v-2l45.1-28c21-13 34-36 34-60 .9-39-30.1-70-70-70z"/></symbol><symbol viewBox="0 0 512 512" id="circle-user" xmlns="http://www.w3.org/2000/svg"><path d="M256 112c-48.6 0-88 39.4-88 88s39.4 88 88 88 88-39.4 88-88-39.4-88-88-88zm0 128c-22.06 0-40-17.95-40-40 0-22.1 17.9-40 40-40s40 17.94 40 40c0 22.1-17.9 40-40 40zm0-240C114.6 0 0 114.6 0 256s114.6 256 256 256 256-114.6 256-256S397.4 0 256 0zm0 464c-46.73 0-89.76-15.68-124.5-41.79C148.8 389 182.4 368 220.2 368h71.69c37.75 0 71.31 21.01 88.68 54.21C345.8 448.3 302.7 464 256 464zm160.2-75.5c-27-42.2-73-68.5-124.4-68.5h-71.6c-51.36 0-97.35 26.25-124.4 68.48C65.96 352.5 48 306.3 48 256c0-114.7 93.31-208 208-208s208 93.31 208 208c0 50.3-18 96.5-47.8 132.5z"/></symbol><symbol viewBox="0 0 512 512" id="clock" xmlns="http://www.w3.org/2000/svg"><path d="M232 120c0-13.3 10.7-24 24-24s24 10.7 24 24v123.2l85.3 56.8c11 7.4 14 22.3 5.8 33.3-6.5 11-21.4 14-32.4 5.8l-96-64c-6.7-3.6-10.7-11.1-10.7-20V120zM256 0c141.4 0 256 114.6 256 256S397.4 512 256 512 0 397.4 0 256 114.6 0 256 0zM48 256c0 114.9 93.1 208 208 208s208-93.1 208-208S370.9 48 256 48 48 141.1 48 256z"/></symbol><symbol viewBox="0 0 512 512" id="clock-white" xmlns="http://www.w3.org/2000/svg"><path fill="#fff" d="M256 0a256 256 0 1 1 0 512 256 256 0 1 1 0-512zm-24 120v136c0 8 4 15.5 10.7 20l96 64c11 7.4 25.9 4.4 33.3-6.7s4.4-25.9-6.7-33.3L280 243.2V120c0-13.3-10.7-24-24-24s-24 10.7-24 24z"/></symbol><symbol viewBox="0 0 320 512" id="close" xmlns="http://www.w3.org/2000/svg"><path d="M310.6 150.6c12.5-12.5 12.5-32.8 0-45.3s-32.8-12.5-45.3 0L160 210.7 54.6 105.4c-12.5-12.5-32.8-12.5-45.3 0s-12.5 32.8 0 45.3L114.7 256 9.4 361.4c-12.5 12.5-12.5 32.8 0 45.3s32.8 12.5 45.3 0L160 301.3l105.4 105.3c12.5 12.5 32.8 12.5 45.3 0s12.5-32.8 0-45.3L205.3 256l105.3-105.4z"/></symbol><symbol viewBox="0 0 640 512" id="cloud" xmlns="http://www.w3.org/2000/svg"><path d="M0 336c0 79.5 64.5 144 144 144h368c70.7 0 128-57.3 128-128 0-61.9-44-113.6-102.4-125.4 4.1-10.7 6.4-22.4 6.4-34.6 0-53-43-96-96-96-19.7 0-38.1 6-53.3 16.2C367 64.2 315.3 32 256 32c-88.4 0-160 71.6-160 160 0 2.7.1 5.4.2 8.1C40.2 219.8 0 273.2 0 336z"/></symbol><symbol viewBox="0 0 576 512" id="contract" xmlns="http://www.w3.org/2000/svg"><path d="M64 0C28.7 0 0 28.7 0 64v384c0 35.3 28.7 64 64 64h256c35.3 0 64-28.7 64-64v-19.3c-2.7 1.1-5.4 2-8.2 2.7l-60.1 15c-3 .7-6 1.2-9 1.4-.9.1-1.8.2-2.7.2h-64c-6.1 0-11.6-3.4-14.3-8.8l-8.8-17.7c-1.7-3.4-5.1-5.5-8.8-5.5s-7.2 2.1-8.8 5.5l-8.8 17.7c-2.9 5.9-9.2 9.4-15.7 8.8s-12.1-5.1-13.9-11.3L144 381l-9.8 32.8c-6.1 20.3-24.8 34.2-46 34.2H80c-8.8 0-16-7.2-16-16s7.2-16 16-16h8.2c7.1 0 13.3-4.6 15.3-11.4l14.9-49.5c3.4-11.3 13.8-19.1 25.6-19.1s22.2 7.8 25.6 19.1l11.6 38.6c7.4-6.2 16.8-9.7 26.8-9.7 15.9 0 30.4 9 37.5 23.2l4.4 8.8h8.9c-3.1-8.8-3.7-18.4-1.4-27.8l15-60.1c2.8-11.3 8.6-21.5 16.8-29.7l94.8-94.8V160H256c-17.7 0-32-14.3-32-32V0H64zm192 0v128h128L256 0zm293.8 139.7c-15.6-15.6-40.9-15.6-56.6 0l-29.4 29.4 71 71 29.4-29.4c15.6-15.6 15.6-40.9 0-56.6l-14.4-14.4zM311.9 321c-4.1 4.1-7 9.2-8.4 14.9l-15 60.1c-1.4 5.5.2 11.2 4.2 15.2s9.7 5.6 15.2 4.2l60.1-15c5.6-1.4 10.8-4.3 14.9-8.4l129.2-129.3-71-71L311.9 321z"/></symbol><symbol viewBox="0 0 576 512" id="crown" xmlns="http://www.w3.org/2000/svg"><path d="M309 106c11.4-7 19-19.7 19-34 0-22.1-17.9-40-40-40s-40 17.9-40 40c0 14.4 7.6 27 19 34l-57.3 114.6c-9.1 18.2-32.7 23.4-48.6 10.7L72 160c5-6.7 8-15 8-24 0-22.1-17.9-40-40-40S0 113.9 0 136s17.9 40 40 40h.7l45.7 251.4c5.5 30.4 32 52.6 63 52.6h277.2c30.9 0 57.4-22.1 63-52.6L535.3 176h.7c22.1 0 40-17.9 40-40s-17.9-40-40-40-40 17.9-40 40c0 9 3 17.3 8 24l-89.1 71.3c-15.9 12.7-39.5 7.5-48.6-10.7L309 106z"/></symbol><symbol viewBox="0 0 448 512" id="dna" xmlns="http://www.w3.org/2000/svg"><!--!Font Awesome Free 6.5.2 by @fontawesome - https://fontawesome.com License - https://fontawesome.com/license/free Copyright 2024 Fonticons, Inc.--><path d="M416 0c17.7 0 32 14.3 32 32 0 59.8-30.3 107.5-69.4 146.6-28 28-62.5 53.5-97.3 77.4l-2.5 1.7c-11.9 8.1-23.8 16.1-35.5 23.9l-1.6 1c-6 4-11.9 7.9-17.8 11.9-20.9 14-40.8 27.7-59.3 41.5h118.7c-9.8-7.4-20.1-14.7-30.7-22.1l7-4.7 3-2c15.1-10.1 30.9-20.6 46.7-31.6 25 18.1 48.9 37.3 69.4 57.7 39 39.2 69.3 86.9 69.3 146.7 0 17.7-14.3 32-32 32s-32-14.3-32-32H64c0 17.7-14.3 32-32 32S0 497.7 0 480c0-59.8 30.3-107.5 69.4-146.6 28-28 62.5-53.5 97.3-77.4-34.8-23.9-69.3-49.3-97.3-77.4C30.3 139.5 0 91.8 0 32 0 14.3 14.3 0 32 0s32 14.3 32 32h320c0-17.7 14.3-32 32-32zm-77.4 384H109.4c-10.1 10.6-18.6 21.3-25.5 32h280.2c-6.8-10.7-15.3-21.4-25.5-32zM109.4 128h229.2c10.1-10.7 18.6-21.3 25.5-32H83.9c6.8 10.7 15.3 21.3 25.5 32zm55.4 48c18.4 13.8 38.4 27.5 59.3 41.5 20.9-14 40.8-27.7 59.3-41.5H164.7z"/></symbol><symbol viewBox="0 0 512 512" id="envelope" xmlns="http://www.w3.org/2000/svg"><path d="M48 64C21.5 64 0 85.5 0 112c0 15.1 7.1 29.3 19.2 38.4l217.6 163.2c11.4 8.5 27 8.5 38.4 0l217.6-163.2c12.1-9.1 19.2-23.3 19.2-38.4 0-26.5-21.5-48-48-48H48zM0 176v208c0 35.3 28.7 64 64 64h384c35.3 0 64-28.7 64-64V176L294.4 339.2a63.9 63.9 0 0 1-76.8 0L0 176z"/></symbol><symbol viewBox="0 0 576 512" id="eye" xmlns="http://www.w3.org/2000/svg"><path d="M288 32c-80.8 0-145.5 36.8-192.6 80.6C48.6 156 17.3 208 2.5 243.7c-3.3 7.9-3.3 16.7 0 24.6C17.3 304 48.6 356 95.4 399.4 142.5 443.2 207.2 480 288 480s145.5-36.8 192.6-80.6c46.8-43.5 78.1-95.4 93-131.1 3.3-7.9 3.3-16.7 0-24.6-14.9-35.7-46.2-87.7-93-131.1C433.5 68.8 368.8 32 288 32zm144 224c0 79.5-64.5 144-144 144s-144-64.5-144-144 64.5-144 144-144 144 64.5 144 144zm-144-64c0 35.3-28.7 64-64 64-11.5 0-22.3-3-31.6-8.4-.2 2.8-.4 5.5-.4 8.4 0 53 43 96 96 96s96-43 96-96-43-96-96-96c-2.8 0-5.6.1-8.4.4 5.3 9.3 8.4 20.1 8.4 31.6z"/></symbol><symbol viewBox="0 0 640 512" id="eye-slash" xmlns="http://www.w3.org/2000/svg"><path d="M38.8 5.1C28.4-3.1 13.3-1.2 5.1 9.2s-6.3 25.5 4.1 33.7l592 464c10.4 8.2 25.5 6.3 33.7-4.1s6.3-25.5-4.1-33.7l-105.2-82.4c39.6-40.6 66.4-86.1 79.9-118.4 3.3-7.9 3.3-16.7 0-24.6-14.9-35.7-46.2-87.7-93-131.1C465.5 68.8 400.8 32 320 32c-68.2 0-125 26.3-169.3 60.8L38.8 5.1zm184.3 144.4c25.5-23.3 59.6-37.5 96.9-37.5 79.5 0 144 64.5 144 144 0 24.9-6.3 48.3-17.4 68.7L408 294.5c5.2-11.8 8-24.8 8-38.5 0-53-43-96-96-96-2.8 0-5.6.1-8.4.4 5.3 9.3 8.4 20.1 8.4 31.6 0 10.2-2.4 19.8-6.6 28.3l-90.3-70.8zm223.1 298L373 389.9c-16.4 6.5-34.3 10.1-53 10.1-79.5 0-144-64.5-144-144 0-6.9.5-13.6 1.4-20.2l-94.3-74.3c-22.8 29.7-39.1 59.3-48.6 82.2-3.3 7.9-3.3 16.7 0 24.6 14.9 35.7 46.2 87.7 93 131.1 47 43.8 111.7 80.6 192.5 80.6 47.8 0 89.9-12.9 126.2-32.5z"/></symbol><symbol viewBox="0 0 384 512" id="file" xmlns="http://www.w3.org/2000/svg"><path d="M0 64C0 28.65 28.65 0 64 0h165.5c17 0 33.2 6.743 45.2 18.75l90.6 90.55c12 12 18.7 28.2 18.7 45.2V448c0 35.3-28.7 64-64 64H64c-35.35 0-64-28.7-64-64V64zm336 384V160h-80c-17.7 0-32-14.3-32-32V48H64c-8.84 0-16 7.16-16 16v384c0 8.8 7.16 16 16 16h256c8.8 0 16-7.2 16-16z"/></symbol><symbol viewBox="0 0 384 512" id="file-excel" xmlns="http://www.w3.org/2000/svg"><path d="m365.3 93.38-74.63-74.64C278.6 6.742 262.3 0 245.4 0H64C28.65 0 0 28.65 0 64l.006 384c0 35.34 28.65 64 64 64H320c35.2 0 64-28.8 64-64V138.6c0-16.9-6.7-33.2-18.7-45.22zM336 448c0 8.836-7.164 16-16 16H64.02c-8.838 0-16-7.164-16-16L48 64.13c0-8.836 7.164-16 16-16h160V128c0 17.67 14.33 32 32 32h79.1v288zM229.1 233.3 192 280.9l-37.1-47.6c-8.1-10.5-23.1-12.4-33.6-4.2-10.5 8.1-12.4 23.2-4.2 33.7l44.5 57.2-44.53 57.25c-8.156 10.47-6.25 25.56 4.188 33.69C125.7 414.3 130.8 416 135.1 416c7.156 0 14.25-3.188 18.97-9.25L192 359.1l37.06 47.65A24.089 24.089 0 0 0 248 416c5.125 0 10.31-1.656 14.72-5.062 10.44-8.125 12.34-23.22 4.188-33.69L222.4 320l44.53-57.25c8.156-10.47 6.25-25.56-4.188-33.69-10.542-8.16-25.542-6.26-33.642 4.24z"/></symbol><symbol viewBox="0 0 384 512" id="file-image" xmlns="http://www.w3.org/2000/svg"><path d="m365.3 93.38-74.63-74.64C278.6 6.742 262.3 0 245.4 0H64C28.65 0 0 28.65 0 64l.006 384c0 35.34 28.65 64 64 64H320c35.2 0 64-28.8 64-64V138.6c0-16.9-6.7-33.2-18.7-45.22zM336 448c0 8.836-7.164 16-16 16H64.02c-8.838 0-16-7.164-16-16L48 64.13c0-8.836 7.164-16 16-16h160V128c0 17.67 14.33 32 32 32h79.1v288zM215.3 292c-4.68 0-9.051 2.34-11.65 6.234L164 357.8l-11.68-17.53A13.937 13.937 0 0 0 140.7 334c-4.682 0-9.053 2.34-11.65 6.234l-46.67 70a13.996 13.996 0 0 0-.695 14.37C84.09 429.2 88.84 432 93.1 432h196c5.163 0 9.907-2.844 12.34-7.395a13.995 13.995 0 0 0-.695-14.37l-74.67-112C224.4 294.3 220 292 215.3 292zm-87.3-4c17.67 0 32-14.33 32-32s-14.3-32-32-32-32 14.3-32 32 14.3 32 32 32z"/></symbol><symbol viewBox="0 0 384 512" id="file-pdf" xmlns="http://www.w3.org/2000/svg"><path d="M320 464c8.8 0 16-7.2 16-16v-32h48v32c0 35.3-28.7 64-64 64H64c-35.35 0-64-28.7-64-64v-32h48v32c0 8.8 7.16 16 16 16h256zm-64-304c-17.7 0-32-14.3-32-32V48H64c-8.84 0-16 7.16-16 16v128H0V64C0 28.65 28.65 0 64 0h165.5c17 0 33.2 6.743 45.2 18.75l90.6 90.55c12 12 18.7 28.2 18.7 45.2V192h-48v-32h-80zM88 224c30.9 0 56 25.1 56 56s-25.1 56-56 56h-8v32c0 8.8-7.16 16-16 16s-16-7.2-16-16V240c0-8.8 7.16-16 16-16h24zm24 56c0-13.3-10.7-24-24-24h-8v48h8c13.3 0 24-10.7 24-24zm48-40c0-8.8 7.2-16 16-16h24c26.5 0 48 21.5 48 48v64c0 26.5-21.5 48-48 48h-24c-8.8 0-16-7.2-16-16V240zm32 112h8c8.8 0 16-7.2 16-16v-64c0-8.8-7.2-16-16-16h-8v96zm144-128c8.8 0 16 7.2 16 16s-7.2 16-16 16h-32v32h32c8.8 0 16 7.2 16 16s-7.2 16-16 16h-32v48c0 8.8-7.2 16-16 16s-16-7.2-16-16V240c0-8.8 7.2-16 16-16h48z"/></symbol><symbol viewBox="0 0 384 512" id="file-word" xmlns="http://www.w3.org/2000/svg"><path d="m365.3 93.38-74.63-74.64C278.6 6.742 262.3 0 245.4 0H64C28.65 0 0 28.65 0 64l.006 384c0 35.34 28.65 64 64 64H320c35.2 0 64-28.8 64-64V138.6c0-16.9-6.7-33.2-18.7-45.22zM336 448c0 8.836-7.164 16-16 16H64.02c-8.838 0-16-7.164-16-16L48 64.13c0-8.836 7.164-16 16-16h160V128c0 17.67 14.33 32 32 32h79.1v288zM214.6 248c-3.3-9.6-12.4-16-22.6-16s-19.25 6.406-22.62 16l-24.68 70.1-25.89-77.66C114.6 227.8 101 221.2 88.41 225.2c-12.58 4.2-19.36 17.8-15.18 30.4l48 144c3.27 9.7 12.27 16.3 22.57 16.4 10.17 0 19.45-6.406 22.83-16L192 328.1l25.4 71.9c3.4 9.6 12.4 16 22.6 16 10.27-.094 19.53-6.688 22.77-16.41l48-144c4.188-12.59-2.594-26.16-15.17-30.38-12.61-4.125-26.2 2.594-30.36 15.19l-25.89 77.66L214.6 248z"/></symbol><symbol viewBox="0 0 384 512" id="file-zipper" xmlns="http://www.w3.org/2000/svg"><path d="m365.3 93.38-74.63-74.64C278.6 6.742 262.3 0 245.4 0H64C28.65 0 0 28.65 0 64l.006 384c0 35.34 28.65 64 64 64H320c35.2 0 64-28.8 64-64V138.6c0-16.9-6.7-33.2-18.7-45.22zM336 448c0 8.836-7.164 16-16 16H64.02c-8.838 0-16-7.164-16-16L48 64.13c0-8.836 7.164-16 16-16h48V64h64V48.13h48.01L224 128c0 17.67 14.33 32 32 32h79.1v288zM176 96h-64v32h64V96zm0 64h-64v32h64v-32zm0 64h-64L81.44 340.5c-7.93 39 22.26 75.5 62.86 75.5 40.26 0 70.45-36.3 62.68-75.15L176 224zm-16 144h-32c-8.836 0-16-7.164-16-16s7.164-16 16-16h32c8.836 0 16 7.164 16 16s-7.2 16-16 16z"/></symbol><symbol viewBox="0 0 512 512" id="headset" xmlns="http://www.w3.org/2000/svg"><path d="M256 48C141.1 48 48 141.1 48 256v40c0 13.3-10.7 24-24 24S0 309.3 0 296v-40C0 114.6 114.6 0 256 0s256 114.6 256 256v144.1c0 48.6-39.4 88-88.1 88l-110.3-.1c-8.3 14.3-23.8 24-41.6 24h-32c-26.5 0-48-21.5-48-48s21.5-48 48-48h32c17.8 0 33.3 9.7 41.6 24l110.4.1c22.1 0 40-17.9 40-40V256c0-114.9-93.1-208-208-208zM144 208h16c17.7 0 32 14.3 32 32v112c0 17.7-14.3 32-32 32h-16c-35.3 0-64-28.7-64-64v-48c0-35.3 28.7-64 64-64zm224 0c35.3 0 64 28.7 64 64v48c0 35.3-28.7 64-64 64h-16c-17.7 0-32-14.3-32-32V240c0-17.7 14.3-32 32-32h16z"/></symbol><symbol viewBox="0 0 640 512" id="language" xmlns="http://www.w3.org/2000/svg"><path d="M0 128c0-35.3 28.7-64 64-64h512c35.3 0 64 28.7 64 64v256c0 35.3-28.7 64-64 64H64c-35.3 0-64-28.7-64-64V128zm320 0v256h256V128H320zm-141.7 47.9c-3.2-7.2-10.4-11.9-18.3-11.9s-15.1 4.7-18.3 11.9l-64 144c-4.5 10.1.1 21.9 10.2 26.4s21.9-.1 26.4-10.2l8.9-20.1h73.6l8.9 20.1c4.5 10.1 16.3 14.6 26.4 10.2s14.6-16.3 10.2-26.4l-64-144zM160 233.2l19 42.8h-38l19-42.8zM448 164c11 0 20 9 20 20v4h60c11 0 20 9 20 20s-9 20-20 20h-2l-1.6 4.5c-8.9 24.4-22.4 46.6-39.6 65.4.9.6 1.8 1.1 2.7 1.6l18.9 11.3c9.5 5.7 12.5 18 6.9 27.4s-18 12.5-27.4 6.9L467 333.8c-4.5-2.7-8.8-5.5-13.1-8.5-10.6 7.5-21.9 14-34 19.4l-3.6 1.6c-10.1 4.5-21.9-.1-26.4-10.2s.1-21.9 10.2-26.4l3.6-1.6c6.4-2.9 12.6-6.1 18.5-9.8L410 286.1c-7.8-7.8-7.8-20.5 0-28.3s20.5-7.8 28.3 0l14.6 14.6.5.5c12.4-13.1 22.5-28.3 29.8-45H376c-11 0-20-9-20-20s9-20 20-20h52v-4c0-11 9-20 20-20z"/></symbol><symbol viewBox="0 0 448 512" id="minus-primary" xmlns="http://www.w3.org/2000/svg"><path fill="#12a594" d="M432 256c0 17.7-14.3 32-32 32H48c-17.7 0-32-14.3-32-32s14.3-32 32-32h352c17.7 0 32 14.3 32 32z"/></symbol><symbol viewBox="0 0 512 512" id="pen-to-square" xmlns="http://www.w3.org/2000/svg"><path d="M471.6 21.7c-21.9-21.9-57.3-21.9-79.2 0l-30.1 30 97.9 97.9 30.1-30.1c21.9-21.9 21.9-57.3 0-79.2l-18.7-18.6zm-299.2 220c-6.1 6.1-10.8 13.6-13.5 21.9l-29.6 88.8c-2.9 8.6-.6 18.1 5.8 24.6s15.9 8.7 24.6 5.8l88.8-29.6c8.2-2.7 15.7-7.4 21.9-13.5l167.3-167.4-98-98-167.3 167.4zM96 64c-53 0-96 43-96 96v256c0 53 43 96 96 96h256c53 0 96-43 96-96v-96c0-17.7-14.3-32-32-32s-32 14.3-32 32v96c0 17.7-14.3 32-32 32H96c-17.7 0-32-14.3-32-32V160c0-17.7 14.3-32 32-32h96c17.7 0 32-14.3 32-32s-14.3-32-32-32H96z"/></symbol><symbol viewBox="0 0 448 512" id="plus" xmlns="http://www.w3.org/2000/svg"><path d="M256 80c0-17.7-14.3-32-32-32s-32 14.3-32 32v144H48c-17.7 0-32 14.3-32 32s14.3 32 32 32h144v144c0 17.7 14.3 32 32 32s32-14.3 32-32V288h144c17.7 0 32-14.3 32-32s-14.3-32-32-32H256V80z"/></symbol><symbol viewBox="0 0 448 512" id="plus-primary" xmlns="http://www.w3.org/2000/svg"><path fill="#12a594" d="M256 80c0-17.7-14.3-32-32-32s-32 14.3-32 32v144H48c-17.7 0-32 14.3-32 32s14.3 32 32 32h144v144c0 17.7 14.3 32 32 32s32-14.3 32-32V288h144c17.7 0 32-14.3 32-32s-14.3-32-32-32H256V80z"/></symbol><symbol viewBox="0 0 448 512" id="priority" xmlns="http://www.w3.org/2000/svg"><path d="M349.4 44.6c5.9-13.7 1.5-29.7-10.6-38.5s-28.6-8-39.9 1.8l-256 224c-10 8.8-13.6 22.9-8.9 35.3S50.7 288 64 288h111.5L98.6 467.4c-5.9 13.7-1.5 29.7 10.6 38.5s28.6 8 39.9-1.8l256-224c10-8.8 13.6-22.9 8.9-35.3s-16.6-20.7-30-20.7H272.5l76.9-179.5z"/></symbol><symbol viewBox="0 0 512 512" id="search" xmlns="http://www.w3.org/2000/svg"><path d="M416 208c0 45.9-14.9 88.3-40 122.7l126.6 126.7c12.5 12.5 12.5 32.8 0 45.3s-32.8 12.5-45.3 0L330.7 376c-34.4 25.2-76.8 40-122.7 40C93.1 416 0 322.9 0 208S93.1 0 208 0s208 93.1 208 208zM208 352c79.5 0 144-64.5 144-144S287.5 64 208 64 64 128.5 64 208s64.5 144 144 144z"/></symbol><symbol viewBox="0 0 512 512" id="shield-halved" xmlns="http://www.w3.org/2000/svg"><path d="M256 0c4.6 0 9.2 1 13.4 2.9l188.3 79.9c22 9.3 38.4 31 38.3 57.2-.5 99.2-41.3 280.7-213.6 363.2-16.7 8-36.1 8-52.8 0C57.3 420.7 16.5 239.2 16 140c-.1-26.2 16.3-47.9 38.3-57.2L242.7 2.9C246.8 1 251.4 0 256 0zm0 66.8v378C394 378 431.1 230.1 432 141.4L256 66.8z"/></symbol><symbol viewBox="0 0 576 512" id="star" xmlns="http://www.w3.org/2000/svg"><path d="M316.9 18c-5.3-11-16.5-18-28.8-18s-23.4 7-28.8 18L195 150.3 51.4 171.5c-12 1.8-22 10.2-25.7 21.7s-.7 24.2 7.9 32.7L137.8 329l-24.6 145.7c-2 12 3 24.2 12.9 31.3s23 8 33.8 2.3l128.3-68.5 128.3 68.5c10.8 5.7 23.9 4.9 33.8-2.3s14.9-19.3 12.9-31.3L438.5 329l104.2-103.1c8.6-8.5 11.7-21.2 7.9-32.7s-13.7-19.9-25.7-21.7l-143.7-21.2L316.9 18z"/></symbol><symbol viewBox="0 0 512 512" id="status" xmlns="http://www.w3.org/2000/svg"><path d="M256 512c141.4 0 256-114.6 256-256S397.4 0 256 0 0 114.6 0 256s114.6 256 256 256zm0-160c-53 0-96-43-96-96s43-96 96-96 96 43 96 96-43 96-96 96z"/></symbol><symbol viewBox="0 0 512 512" id="triangle-exclamation-warning" xmlns="http://www.w3.org/2000/svg"><path fill="#ffb224" d="M256 32c14.2 0 27.3 7.5 34.5 19.8l216 368c7.3 12.4 7.3 27.7.2 40.1S486.3 480 472 480H40c-14.3 0-27.6-7.7-34.7-20.1s-7-27.8.2-40.1l216-368C228.7 39.5 241.8 32 256 32zm0 128c-13.3 0-24 10.7-24 24v112c0 13.3 10.7 24 24 24s24-10.7 24-24V184c0-13.3-10.7-24-24-24zm32 224c0-17.7-14.3-32-32-32s-32 14.3-32 32 14.3 32 32 32 32-14.3 32-32z"/></symbol><symbol viewBox="0 0 448 512" id="user" xmlns="http://www.w3.org/2000/svg"><path d="M224 256c70.7 0 128-57.3 128-128S294.7 0 224 0 96 57.3 96 128s57.3 128 128 128zm-45.7 48C79.8 304 0 383.8 0 482.3 0 498.7 13.3 512 29.7 512h388.6c16.4 0 29.7-13.3 29.7-29.7 0-98.5-79.8-178.3-178.3-178.3h-91.4z"/></symbol></svg>