<svg width="232" height="178" fill="none" xmlns="http://www.w3.org/2000/svg"><g opacity=".9"><path fill-rule="evenodd" clip-rule="evenodd" d="M157.03 28.86c2.546 4.244 9.57 6.66 14.374.352l5.036 3.347c-2.816 4.028-5.513 11.821 6.226 10.771l.757 4.725c-5.215 1.297-12.994 5.75-2.387 13.19l-3.684 5.09c-4.249-3.473-12.486-7.069-11.447 6.333l-4.724.757c-1.271-9.038-10.115-11.404-15.022-5.26l-1.013-5.353a6.072 6.072 0 0 1-.569-1.787l-.279-1.816 3.583-11.456a12.655 12.655 0 0 0 .065 3.563c1.105 6.896 7.591 11.59 14.488 10.486 6.896-1.105 11.591-7.591 10.486-14.487-1.105-6.897-7.591-11.591-14.488-10.487a12.629 12.629 0 0 0-9.209 6.632l3.437-10.986 4.37-3.614Z" fill="#FFD22D"/><path fill-rule="evenodd" clip-rule="evenodd" d="M95.916 30.133c7.214 2.122 14.101-6.317 6.474-15.799l6.841-6.27c4.963 5.68 15.58 12.57 18.341-5.305l7.317.613c.011 8.247 3.78 21.476 18.77 8.415l6.226 7.364c-6.739 5.05-15.131 15.997 5.218 19.386l-.613 7.318c-13.933-1.437-20.717 10.867-13.371 20.44l-3.453 4.468-4.03-2.65a8 8 0 0 0-10.673 1.729l-1.822 2.307-40.658-22.494 5.433-19.522Zm51.719 9.572c-.895 10.681-10.278 18.614-20.959 17.72-10.681-.895-18.614-10.28-17.719-20.96.895-10.68 10.278-18.614 20.959-17.72 10.681.896 18.614 10.28 17.719 20.96Z" fill="#0D3C48"/><path d="M0 42.011c0-4.418 3.582-8.059 8-8.059h122.356c4.418 0 8 3.64 8 8.059v77.31a8 8 0 0 1-8 8H8a8 8 0 0 1-8-8v-77.31Z" fill="#12A594"/><path d="m5.093 37.348 2.546 2.546m0-2.546-2.546 2.546" stroke="#fff" stroke-linecap="round"/><path d="M0 41.592h138.356v77.729a8 8 0 0 1-8 8H8a8 8 0 0 1-8-8v-77.73Z" fill="#E4E4E4"/><path stroke="#0D3C48" stroke-linecap="round" d="M15.779 57.219h27.859M15.779 103.055h50.777M39.545 71.649h55.022"/><path stroke="#12A594" stroke-linecap="round" d="M22.569 119.182h58.417"/><path stroke="#0D3C48" stroke-linecap="round" d="M51.429 57.219h62.66M75.195 103.055h38.894"/><path stroke="#12A594" stroke-linecap="round" d="M32.755 87.776h81.334M104.055 71.649h23.615M104.055 119.182h23.615"/><path d="M83.183 100.16c0-7.97 6.46-14.43 14.43-14.43h95.915c7.97 0 14.43 6.46 14.43 14.43v9.738a7.87 7.87 0 0 0-.345-.008c-4.759 0-8.617 4.226-8.617 9.438 0 5.213 3.858 9.438 8.617 9.438.116 0 .231-.003.345-.007v9.738c0 7.969-6.46 14.43-14.43 14.43H97.613c-7.97 0-14.43-6.461-14.43-14.43v-9.738c4.6-.199 8.272-4.345 8.272-9.431 0-5.086-3.673-9.232-8.272-9.43v-9.738Z" fill="#12A594"/><path stroke="#fff" stroke-linecap="round" d="M99.811 98.113v4.093M99.811 104.904v4.093M99.811 111.694v4.093M99.811 118.485v4.093M99.811 132.066v4.093M99.811 145.647v4.093M99.811 138.856v4.093M99.811 125.275v4.093M192.144 98.113v4.093M192.144 104.904v4.093M192.144 111.694v4.093M192.144 118.485v4.093M192.144 132.066v4.093M192.144 145.647v4.093M192.144 138.856v4.093M192.144 125.276v4.092"/><path d="M197.135 121.59c12.167-.849 35.778 16.342 33.741 28.225-1.981 11.554-34.299 10.671-45.06 11.783-.5.052-.856.514-1.211.87-.08.081-.176.175-.29.299-.532.583-1.508.547-1.815-.18-1.168-2.769-2.513-6.736-3.067-8.952-.37-1.483-.463-2.485-.125-2.813.601-.585 2.914.176 3.736.007 5.472-1.126 21.209-2.607 27.666-3.705 1.374-.233 1.452-1.392.218-2.039l-6.365-3.334M129.019 126.473c5.942 2.688 20.711 6.451 32.255 0" stroke="#0D3C48" stroke-width="2" stroke-linecap="round"/><path fill-rule="evenodd" clip-rule="evenodd" d="m111.021 159.119 1.373-4.805h4.43v23.087l-5.803-18.282Z" fill="#1B6974"/><path d="M117.787 157.2h-5.291l5.291 16.834V157.2Z" fill="#D9D9D9"/><path d="M116.824 139.112a5 5 0 0 1 5-5h59.263a5 5 0 0 1 5 5v33.289a5 5 0 0 1-5 5h-64.263v-38.289Z" fill="#0D3C48"/><path d="M93.28 121.41c-12.165-.849-35.777 16.342-33.74 28.225 1.981 11.556 35.914 10.841 46.759 11.963.499.052.903.512 1.313.801.15.106.334.231.547.422.588.526 1.56.486 1.83-.255 1.009-2.768 1.926-6.721 2.478-8.931.377-1.508.466-2.388.108-2.582-.737-.4-2.891.364-3.71.185-5.668-1.239-22.454-3.052-29.159-4.27-1.371-.249-1.452-1.416-.218-2.062l6.365-3.334" stroke="#0D3C48" stroke-width="2" stroke-linecap="round"/><path d="M97.37 85.73h95.915c6.015 0 11.171 3.68 13.338 8.912H84.033c2.166-5.232 7.322-8.912 13.337-8.912Z" fill="#0D3C48"/><path d="M148.599 114.589c0-4.966 7.935-4.966 7.935 0m-20.829 0c0-4.966 7.935-4.966 7.935 0M149.03 104.579c.926-.441 4.948-.689 6.972 1.033m-20.018 0c1.242-1.003 4.499-1.894 6.523-1.033" stroke="#0D3C48" stroke-width="2" stroke-linecap="round"/></g></svg>