<svg width="586" height="378" fill="none" xmlns="http://www.w3.org/2000/svg">
  <path d="M147.279 368c-39.402 0-98.596 5.025-138.204-37.81-30.988-33.513 25.75-53.318 45.238-38.808-13.875-10.625-34.982-34.707-24.89-53.882 10-19 55.985 1.443 67.5 18-12.506-24.589-30.418-72.916-4.267-91.005 32.69-22.612 159.361 66.723 137.816 203.505h-83.193Z" fill="#12A594"/>
  <path d="M456.522 250.744c-47.167 4.846-109.385 77.785-134.598 113.649 74.297 5.289 228.988 8.769 253.377-19.614 30.486-35.48-10.929-62.017-45.153-49.902-34.225 12.115-46.592 4.327-39.402-6.634 7.19-10.962 24.734-43.556-34.224-37.499Z" fill="#FFD22D"/>
  <path d="M276.578 22.802C186.267 66.983 147.984 271.37 140.924 367.571c100.282 9.793 304.805 4.153 341.837 0 47.522-5.33 80.899-172.263 65.27-201.331-34.148-63.51-105.63 1.456-113.843-70.263C425.975 24.26 389.4-32.39 276.578 22.803Z" fill="#F3F5F6"/>
  <ellipse cx="321.424" cy="370.5" rx="214.5" ry="7.5" fill="#010F11"/>
  <circle cx="456.687" cy="121.724" r="3.763" fill="#FFD22D"/>
  <circle cx="466.565" cy="109.025" r="5.174" fill="#FFD22D"/>
  <circle cx="498.02" cy="73.807" r="34.807" fill="#FFD22D"/>
  <path d="M221.226 165.42c0-14.71 11.924-26.634 26.634-26.634h177.042c14.71 0 26.635 11.924 26.635 26.634v17.975a14.92 14.92 0 0 0-.636-.014c-8.785 0-15.906 7.8-15.906 17.421 0 9.621 7.121 17.42 15.906 17.42.213 0 .425-.005.636-.014v17.975c0 14.71-11.925 26.635-26.635 26.635H247.86c-14.71 0-26.634-11.925-26.634-26.635v-17.975c8.489-.365 15.269-8.019 15.269-17.406 0-9.388-6.78-17.041-15.269-17.407V165.42Z" fill="#12A594"/>
  <path d="M247.685 138.786h177.042c11.103 0 20.619 6.793 24.618 16.45H223.066c4-9.657 13.516-16.45 24.619-16.45Z" fill="#114249"/>
  <path stroke="#fff" stroke-linecap="round" d="M251.494 161.22v8.4M251.494 173.754v8.4M251.494 186.288v8.4M251.494 198.822v8.4M251.494 223.89v8.4M251.494 248.957v8.401M251.494 236.423v8.401M251.494 211.356v8.4M421.925 161.22v8.4M421.925 173.754v8.4M421.925 186.288v8.4M421.925 198.822v8.4M421.925 223.89v8.4M421.925 248.957v8.401M421.925 236.423v8.401M421.925 211.356v8.4"/>
  <path d="M335.664 225.815c12.008.843 21.194-3.675 26.851-14.959M278.016 251.591c2.35 33.946 4.857 101.838-3.917 101.838-10.967 0 13.317 14.101 32.118 7.051 8.095-30.813 23.971-95.728 22.718-108.889M395.591 251.591c-2.35 33.946-4.856 101.838 3.917 101.838 10.968 0-13.317 14.101-32.118 7.051-8.095-30.813-23.971-95.728-22.718-108.889M241.82 204.977c-22.456-1.567-66.43.783-62.669 22.717 3.76 21.935 30.812 25.59 42.302 25.068-1.045 2.35 0 12.534 14.1 5.484m-10.967-30.552-7.834 3.134m0 0-5.483-3.134m5.483 3.134c2.612 2.35 7.834 7.677 7.834 10.184M312.097 183.307c2.232-2.829 7.618-8.486 11.302-8.486m27.627 0c3.349 1.273 9.962 4.752 9.627 8.486m-41.44 11.881c0-9.4 14.232-9.4 14.232 0m7.535 0c0-8.617 13.395-8.617 13.395 0" stroke="#114249" stroke-width="2" stroke-linecap="round"/>
  <path d="M215.743 156.02c-1.045-9.662 4.073-29.142 32.901-29.768 28.828-.627 134.218-.261 183.309 0 8.356-.261 25.068 5.327 25.068 29.768" stroke="#FFD22D" stroke-linecap="round"/>
  <rect width="10.967" height="32.902" rx="5.484" transform="matrix(-1 0 0 1 462.505 152.886)" fill="#FFD22D"/>
  <path d="M471.905 169.337c0 5.624-4.91 10.184-10.967 10.184v-20.368c.699 0 1.382.061 2.045.177 5.08.889 8.922 5.031 8.922 10.007Z" fill="#FFD22D"/>
  <rect x="210.26" y="152.886" width="10.967" height="32.902" rx="5.484" fill="#FFD22D"/>
  <path d="M200.858 169.337c0 5.624 4.911 10.184 10.968 10.184v-20.368c-.699 0-1.383.061-2.045.177-5.08.889-8.923 5.031-8.923 10.007Z" fill="#FFD22D"/>
  <path d="M431.17 204.975c22.457-1.566 66.43.784 62.67 22.718-3.761 21.935-30.813 25.59-42.302 25.068 1.044 2.35 0 12.534-14.101 5.484m10.967-30.552 7.834 3.134m0 0 5.483-3.134m-5.483 3.134c-2.611 2.35-7.834 7.677-7.834 10.183" stroke="#114249" stroke-width="2" stroke-linecap="round"/>
  <path d="M457.804 178.737c0 18.018 1.097 34.469-19.584 34.469h-61.103" stroke="#FFD22D" stroke-linecap="round"/>
  <rect x="368.5" y="210.856" width="12.534" height="4.7" rx="2.35" fill="#FFD22D"/>
  <path fill="#fff" d="M494.241 92.961h6.191v1.486h-6.191zM494.241 95.932h6.191a2.476 2.476 0 0 1-2.476 2.477h-1.238a2.477 2.477 0 0 1-2.477-2.477Z"/>
  <path fill-rule="evenodd" clip-rule="evenodd" d="M482.849 73.893c-.454.743-1.882 1.733-3.962-.248l-1.609 1.486c1.238 1.28 2.649 3.913-1.61 4.21v1.733c1.94.165 4.977 1.313 1.61 4.582l1.609 1.61c1.321-1.487 4.061-3.245 4.458 1.609h1.733c.206-1.858 1.387-4.83 4.457-1.858l1.734-1.61-.991-4.085-2.847-9.782-4.582 2.353Zm1.115 10.896a4.581 4.581 0 1 0 0-9.162 4.581 4.581 0 0 0 0 9.162ZM496.746 57.367c1.247-.35 3.242-1.997 1.243-5.776l2.778-1.707c1.333 2.29 4.536 5.374 6.68-.608l2.483.7c-.545 2.845-.127 7.66 5.915 4.153l1.657 2.955c-2.662 1.293-6.286 4.51.508 7.035l-.699 2.484c-4.711-1.424-7.871 2.368-5.975 6.16l-1.489 1.31-5.454-3.066-12.865-8.025 5.218-5.614Zm15.161 5.991a6.819 6.819 0 1 1-13.127-3.695 6.819 6.819 0 0 1 13.127 3.695Z" fill="#fff"/>
  <path fill-rule="evenodd" clip-rule="evenodd" d="M502.661 84.73c5.371-2.16 9.162-7.418 9.162-13.561 0-8.07-6.541-14.61-14.61-14.61-8.069 0-14.61 6.54-14.61 14.61 0 6.237 3.908 11.562 9.41 13.658v1.572a5.324 5.324 0 1 0 10.648 0v-1.67Z" fill="#fff"/>
  <path fill="#fff" d="m482.691 52.701 1.361-.352 1.674 6.477-1.36.352zM519.796 82.814l-.017-1.406-6.69.08.017 1.407zM476.025 57.985l.824-1.14 5.42 3.922-.824 1.14zM516.442 90.632l.884-1.094-5.205-4.204-.883 1.094zM475.008 67.684l-.33-1.366 6.503-1.57.33 1.366zM507.348 94.154l1.405-.04-.188-6.687-1.405.04z"/>
  <path d="M501.224 62.018c1.896.632 4.424 1.896 5.056 5.28" stroke="#FFD22D" stroke-linecap="round"/>
</svg>