<svg width="703" height="140" viewBox="0 0 703 140" fill="none" xmlns="http://www.w3.org/2000/svg">
<path d="M0 35.0576C0 19.9914 12.3497 7.77777 27.5838 7.77777H210.935C226.169 7.77777 238.518 19.9914 238.518 35.0576V53.4681C238.3 53.4587 238.08 53.454 237.86 53.454C228.762 53.454 221.387 61.4423 221.387 71.2963C221.387 81.1503 228.762 89.1386 237.86 89.1386C238.08 89.1386 238.3 89.1339 238.518 89.1246V107.535C238.518 122.601 226.169 134.815 210.935 134.815H27.5838C12.3497 134.815 0 122.601 0 107.535V89.1246C8.79197 88.75 15.8135 80.9113 15.8135 71.2963C15.8135 61.6813 8.79197 53.8426 0 53.4681V35.0576Z" fill="#12A594"/>
<path d="M210.935 7.77773H27.5841C15.5884 7.77773 5.38122 15.3505 1.58362 25.9259H236.935C233.138 15.3505 222.931 7.77773 210.935 7.77773Z" fill="#114249"/>
<path d="M84.4536 77.7778C89.4446 89.4444 105 102.407 136.6 93.4279" stroke="#114249" stroke-width="3.5" stroke-linecap="round"/>
<path d="M390.305 133.957C388.279 133.957 386.647 133.385 385.409 132.242C384.284 130.984 383.721 129.326 383.721 127.268V46.825C383.721 44.7667 384.284 43.1659 385.409 42.0224C386.647 40.7646 388.279 40.1357 390.305 40.1357C392.219 40.1357 393.738 40.7646 394.864 42.0224C396.102 43.1659 396.721 44.7667 396.721 46.825V127.268C396.721 129.326 396.102 130.984 394.864 132.242C393.738 133.385 392.219 133.957 390.305 133.957ZM390.137 22.2976C387.66 22.2976 385.522 21.3828 383.721 19.5533C381.92 17.7237 381.02 15.494 381.02 12.864C381.02 10.0053 381.92 7.77558 383.721 6.17472C385.635 4.45952 387.829 3.60192 390.305 3.60192C392.669 3.60192 394.751 4.45952 396.552 6.17472C398.465 7.77558 399.422 10.0053 399.422 12.864C399.422 15.494 398.521 17.7237 396.721 19.5533C394.92 21.3828 392.725 22.2976 390.137 22.2976Z" fill="#114249"/>
<path d="M442.209 133.957C437.707 133.957 433.656 132.699 430.054 130.184C426.565 127.668 423.808 124.181 421.782 119.721C419.868 115.262 418.912 110.116 418.912 104.284V6.51776C418.912 4.57386 419.474 3.03018 420.6 1.88672C421.838 0.628906 423.414 0 425.327 0C427.24 0 428.76 0.628906 429.885 1.88672C431.123 3.03018 431.742 4.57386 431.742 6.51776V104.284C431.742 109.201 432.699 113.203 434.612 116.291C436.638 119.378 439.171 120.922 442.209 120.922H446.43C448.118 120.922 449.469 121.551 450.482 122.808C451.495 123.952 452.001 125.496 452.001 127.439C452.001 129.383 451.27 130.984 449.806 132.242C448.456 133.385 446.655 133.957 444.404 133.957H442.209Z" fill="#114249"/>
<path d="M501.673 134.815C492.556 134.815 484.453 132.814 477.362 128.812C470.384 124.695 464.869 119.035 460.818 111.831C456.878 104.627 454.909 96.3943 454.909 87.1322C454.909 77.7558 456.766 69.5228 460.48 62.4333C464.307 55.2295 469.54 49.5693 476.181 45.4528C482.821 41.3363 490.474 39.2781 499.141 39.2781C507.694 39.2781 515.123 41.2792 521.425 45.2813C527.841 49.1691 532.793 54.6006 536.282 61.5757C539.771 68.5509 541.516 76.498 541.516 85.417C541.516 87.2466 540.953 88.7331 539.827 89.8765C538.702 90.9056 537.239 91.4202 535.438 91.4202H463.688V80.4429H536.788L529.529 85.76C529.642 79.1279 528.46 73.1819 525.984 67.922C523.508 62.662 519.962 58.5455 515.348 55.5725C510.846 52.5995 505.443 51.113 499.141 51.113C492.725 51.113 487.098 52.6567 482.258 55.744C477.419 58.8314 473.648 63.1194 470.947 68.608C468.358 73.9823 467.064 80.1571 467.064 87.1322C467.064 94.1074 468.527 100.282 471.453 105.656C474.492 111.031 478.6 115.262 483.778 118.349C488.955 121.436 494.92 122.98 501.673 122.98C505.725 122.98 509.777 122.294 513.828 120.922C517.993 119.435 521.313 117.606 523.789 115.433C525.027 114.404 526.434 113.889 528.01 113.889C529.585 113.775 530.936 114.175 532.061 115.09C533.525 116.462 534.256 117.949 534.256 119.549C534.369 121.15 533.75 122.523 532.399 123.666C528.685 126.868 523.958 129.555 518.218 131.727C512.478 133.786 506.963 134.815 501.673 134.815Z" fill="#114249"/>
<path d="M589.724 133.957C583.759 133.957 578.413 132.528 573.686 129.669C569.071 126.811 565.413 122.923 562.712 118.006C560.011 112.975 558.661 107.257 558.661 100.854V16.9805C558.661 15.0366 559.223 13.4357 560.349 12.1779C561.587 10.9201 563.163 10.2912 565.076 10.2912C566.989 10.2912 568.565 10.9201 569.803 12.1779C571.041 13.4357 571.66 15.0366 571.66 16.9805V100.854C571.66 106.686 573.348 111.488 576.725 115.262C580.101 118.921 584.434 120.75 589.724 120.75H594.282C596.083 120.75 600.75 120.706 602.327 120.706C603.87 120.706 613.125 119.922 618.524 113.652C625.775 114.168 627.008 123.351 627.008 124.625C615.439 134.815 601.556 133.957 600.013 133.957C598.471 133.957 595.386 134.031 593.269 133.957H589.724ZM547.687 55.0579C545.999 55.0579 544.592 54.5434 543.466 53.5143C542.341 52.3708 541.778 50.9986 541.778 49.3978C541.778 47.6826 542.341 46.3104 543.466 45.2813C544.592 44.1378 545.999 43.5661 547.687 43.5661H590.737C592.425 43.5661 593.832 44.1378 594.958 45.2813C596.083 46.3104 596.646 47.6826 596.646 49.3978C596.646 50.9986 596.083 52.3708 594.958 53.5143C593.832 54.5434 592.425 55.0579 590.737 55.0579H547.687Z" fill="#114249"/>
<path d="M655.659 134.815C646.655 134.815 638.608 132.757 631.518 128.64C624.427 124.524 618.856 118.863 614.804 111.66C610.752 104.456 608.726 96.2799 608.726 87.1322C608.726 77.8701 610.752 69.6372 614.804 62.4333C618.856 55.2295 624.427 49.5693 631.518 45.4528C638.608 41.3363 646.655 39.2781 655.659 39.2781C664.663 39.2781 672.654 41.3363 679.632 45.4528C686.723 49.5693 692.294 55.2295 696.346 62.4333C700.398 69.6372 702.48 77.8701 702.592 87.1322C702.592 96.2799 700.51 104.456 696.346 111.66C692.294 118.863 686.723 124.524 679.632 128.64C672.654 132.757 664.663 134.815 655.659 134.815ZM655.659 122.808C662.187 122.808 668.04 121.265 673.217 118.177C678.394 115.09 682.446 110.859 685.372 105.485C688.299 100.111 689.762 93.993 689.762 87.1322C689.762 80.2714 688.299 74.1539 685.372 68.7796C682.446 63.2909 678.394 59.0029 673.217 55.9156C668.04 52.8282 662.187 51.2845 655.659 51.2845C649.132 51.2845 643.279 52.8282 638.102 55.9156C632.924 59.0029 628.816 63.2909 625.778 68.7796C622.851 74.1539 621.388 80.2714 621.388 87.1322C621.388 93.993 622.851 100.111 625.778 105.485C628.816 110.859 632.924 115.09 638.102 118.177C643.279 121.265 649.132 122.808 655.659 122.808Z" fill="#114249"/>
<path d="M278.8 13V95.963" stroke="#114249" stroke-width="13" stroke-linecap="round"/>
<path d="M365.323 101.538C356.85 133.477 334.839 140.724 324.074 139.945C345.097 121.159 350.969 104.565 351.456 97.3265C351.502 96.6405 352.168 96.1341 352.826 96.3335L356.667 97.498C357.259 101.271 360.371 100.642 361.111 99.0701L364.695 100.338C365.183 100.51 365.456 101.038 365.323 101.538Z" fill="#12A594"/>
<path d="M286.375 93.4857C286.375 75.2583 301.512 60.4821 320.185 60.4821C338.347 60.4821 353.164 74.461 353.961 91.9978L353.995 91.9506C357.629 92.5418 364.341 93.9525 368.096 95.6918C368.131 94.9607 368.148 94.2252 368.148 93.4857C368.148 67.6283 346.674 46.6667 320.185 46.6667C293.696 46.6667 272.222 67.6283 272.222 93.4857C272.222 117.528 290.785 137.336 314.687 140C319.383 136.737 327.101 128.635 330.406 124.954C327.181 125.951 323.748 126.489 320.185 126.489C319.748 126.489 319.313 126.481 318.88 126.465C300.815 125.798 286.375 111.286 286.375 93.4857Z" fill="#114249"/>
<line x1="31.6111" y1="29.0186" x2="31.6111" y2="37.8035" stroke="white" stroke-linecap="round"/>
<line x1="31.6111" y1="42.0654" x2="31.6111" y2="50.8504" stroke="white" stroke-linecap="round"/>
<line x1="31.6111" y1="55.1116" x2="31.6111" y2="63.8965" stroke="white" stroke-linecap="round"/>
<line x1="31.6111" y1="68.1584" x2="31.6111" y2="76.9433" stroke="white" stroke-linecap="round"/>
<line x1="31.6111" y1="94.2515" x2="31.6111" y2="103.036" stroke="white" stroke-linecap="round"/>
<line x1="31.6111" y1="120.345" x2="31.6111" y2="129.13" stroke="white" stroke-linecap="round"/>
<line x1="31.6111" y1="107.298" x2="31.6111" y2="116.083" stroke="white" stroke-linecap="round"/>
<line x1="31.6111" y1="81.2047" x2="31.6111" y2="89.9896" stroke="white" stroke-linecap="round"/>
<line x1="209.012" y1="29.0186" x2="209.012" y2="37.8035" stroke="white" stroke-linecap="round"/>
<line x1="209.012" y1="42.0654" x2="209.012" y2="50.8504" stroke="white" stroke-linecap="round"/>
<line x1="209.012" y1="55.1116" x2="209.012" y2="63.8965" stroke="white" stroke-linecap="round"/>
<line x1="209.012" y1="68.1584" x2="209.012" y2="76.9433" stroke="white" stroke-linecap="round"/>
<line x1="209.012" y1="94.2515" x2="209.012" y2="103.036" stroke="white" stroke-linecap="round"/>
<line x1="209.012" y1="120.345" x2="209.012" y2="129.13" stroke="white" stroke-linecap="round"/>
<line x1="209.012" y1="107.298" x2="209.012" y2="116.083" stroke="white" stroke-linecap="round"/>
<line x1="209.012" y1="81.2047" x2="209.012" y2="89.9896" stroke="white" stroke-linecap="round"/>
<path d="M126.454 47.4316C128.254 46.4592 136.067 45.9146 140 49.7071M125.144 62.2222C125.144 54.6373 139.126 54.6373 139.126 62.2222M101.111 49.707C103.523 47.496 109.85 45.5354 113.783 47.4316M102.422 62.2222C102.422 54.6373 116.404 54.6373 116.404 62.2222" stroke="#114249" stroke-width="3.5" stroke-linecap="round"/>
</svg>
