<svg width="318" height="64" viewBox="0 0 318 64" fill="none" xmlns="http://www.w3.org/2000/svg">
<path d="M176.656 60.9477C175.739 60.9477 175 60.6889 174.44 60.1714C173.931 59.6021 173.676 58.8516 173.676 57.92V21.5108C173.676 20.5792 173.931 19.8547 174.44 19.3371C175 18.7678 175.739 18.4832 176.656 18.4832C177.522 18.4832 178.21 18.7678 178.719 19.3371C179.279 19.8547 179.56 20.5792 179.56 21.5108V57.92C179.56 58.8516 179.279 59.6021 178.719 60.1714C178.21 60.6889 177.522 60.9477 176.656 60.9477ZM176.58 10.4095C175.459 10.4095 174.491 9.99546 173.676 9.16738C172.861 8.33932 172.453 7.3301 172.453 6.13975C172.453 4.84589 172.861 3.83668 173.676 3.11212C174.542 2.3358 175.535 1.94764 176.656 1.94764C177.726 1.94764 178.668 2.3358 179.483 3.11212C180.349 3.83668 180.782 4.84589 180.782 6.13975C180.782 7.3301 180.375 8.33932 179.56 9.16738C178.745 9.99546 177.751 10.4095 176.58 10.4095Z" fill="white" style="fill:white;fill-opacity:1;"/>
<path d="M200.148 60.9477C198.111 60.9477 196.277 60.3784 194.647 59.2398C193.067 58.1012 191.819 56.5227 190.902 54.5043C190.036 52.4858 189.603 50.1569 189.603 47.5174V3.26738C189.603 2.38756 189.858 1.68887 190.368 1.17133C190.928 0.602031 191.641 0.317383 192.507 0.317383C193.373 0.317383 194.061 0.602031 194.57 1.17133C195.131 1.68887 195.411 2.38756 195.411 3.26738V47.5174C195.411 49.7428 195.844 51.5543 196.71 52.9516C197.627 54.349 198.773 55.0477 200.148 55.0477H202.059C202.823 55.0477 203.434 55.3323 203.892 55.9016C204.351 56.4192 204.58 57.1179 204.58 57.9977C204.58 58.8775 204.249 59.6021 203.587 60.1714C202.975 60.6889 202.16 60.9477 201.142 60.9477H200.148Z" fill="white" style="fill:white;fill-opacity:1;"/>
<path d="M227.062 61.3358C222.936 61.3358 219.268 60.4301 216.059 58.6187C212.9 56.7556 210.404 54.1937 208.57 50.9332C206.788 47.6727 205.896 43.9463 205.896 39.7542C205.896 35.5104 206.737 31.7841 208.418 28.5753C210.15 25.3148 212.518 22.7529 215.524 20.8898C218.529 19.0266 221.993 18.095 225.916 18.095C229.787 18.095 233.149 19.0007 236.002 20.8121C238.906 22.5718 241.147 25.0301 242.726 28.1871C244.306 31.3442 245.095 34.9411 245.095 38.9779C245.095 39.806 244.84 40.4788 244.331 40.9963C243.822 41.4621 243.159 41.695 242.344 41.695H209.869V36.7266H242.956L239.67 39.1332C239.721 36.1314 239.186 33.4402 238.065 31.0595C236.945 28.6788 235.34 26.8156 233.251 25.47C231.214 24.1244 228.769 23.4516 225.916 23.4516C223.012 23.4516 220.465 24.1503 218.275 25.5477C216.084 26.945 214.378 28.8858 213.155 31.37C211.984 33.8025 211.398 36.5972 211.398 39.7542C211.398 42.9113 212.06 45.706 213.384 48.1385C214.76 50.5709 216.619 52.4858 218.962 53.8832C221.306 55.2806 224.006 55.9792 227.062 55.9792C228.896 55.9792 230.73 55.6687 232.564 55.0477C234.448 54.3749 235.951 53.5468 237.072 52.5635C237.632 52.0977 238.269 51.8648 238.982 51.8648C239.695 51.813 240.307 51.9942 240.816 52.4082C241.478 53.0292 241.809 53.7021 241.809 54.4266C241.86 55.1512 241.58 55.7722 240.969 56.2898C239.288 57.7389 237.148 58.9551 234.55 59.9385C231.952 60.87 229.456 61.3358 227.062 61.3358Z" fill="white" style="fill:white;fill-opacity:1;"/>
<path d="M266.915 60.9477C264.215 60.9477 261.795 60.3007 259.656 59.0069C257.567 57.713 255.912 55.9534 254.689 53.7279C253.466 51.4507 252.855 48.863 252.855 45.9648V8.00291C252.855 7.12308 253.11 6.39852 253.619 5.82923C254.18 5.25993 254.893 4.97528 255.759 4.97528C256.625 4.97528 257.338 5.25993 257.898 5.82923C258.459 6.39852 258.739 7.12308 258.739 8.00291V45.9648C258.739 48.6043 259.503 50.7779 261.031 52.4858C262.559 54.142 264.521 54.97 266.915 54.97H268.978C269.793 54.97 271.905 54.9502 272.619 54.9502C273.317 54.9502 277.506 54.5954 279.95 51.7574C283.232 51.9909 283.79 56.1473 283.79 56.724C278.553 61.3358 272.27 60.9477 271.572 60.9477C270.874 60.9477 269.477 60.9811 268.519 60.9477H266.915ZM247.888 25.2371C247.124 25.2371 246.488 25.0042 245.978 24.5384C245.469 24.0209 245.214 23.3998 245.214 22.6753C245.214 21.899 245.469 21.2779 245.978 20.8121C246.488 20.2946 247.124 20.0358 247.888 20.0358H267.373C268.137 20.0358 268.774 20.2946 269.284 20.8121C269.793 21.2779 270.048 21.899 270.048 22.6753C270.048 23.3998 269.793 24.0209 269.284 24.5384C268.774 25.0042 268.137 25.2371 267.373 25.2371H247.888Z" fill="white" style="fill:white;fill-opacity:1;"/>
<path d="M296.758 61.3358C292.682 61.3358 289.04 60.4043 285.831 58.5411C282.622 56.6779 280.1 54.1161 278.266 50.8556C276.432 47.595 275.515 43.8946 275.515 39.7542C275.515 35.5621 276.432 31.8358 278.266 28.5753C280.1 25.3148 282.622 22.7529 285.831 20.8898C289.04 19.0266 292.682 18.095 296.758 18.095C300.833 18.095 304.45 19.0266 307.608 20.8898C310.817 22.7529 313.339 25.3148 315.173 28.5753C317.007 31.8358 317.949 35.5621 318 39.7542C318 43.8946 317.058 47.595 315.173 50.8556C313.339 54.1161 310.817 56.6779 307.608 58.5411C304.45 60.4043 300.833 61.3358 296.758 61.3358ZM296.758 55.9016C299.712 55.9016 302.361 55.2029 304.705 53.8056C307.048 52.4082 308.882 50.4933 310.206 48.0608C311.531 45.6284 312.193 42.8595 312.193 39.7542C312.193 36.649 311.531 33.8801 310.206 31.4477C308.882 28.9634 307.048 27.0227 304.705 25.6253C302.361 24.2279 299.712 23.5292 296.758 23.5292C293.803 23.5292 291.154 24.2279 288.811 25.6253C286.468 27.0227 284.608 28.9634 283.233 31.4477C281.908 33.8801 281.246 36.649 281.246 39.7542C281.246 42.8595 281.908 45.6284 283.233 48.0608C284.608 50.4933 286.468 52.4082 288.811 53.8056C291.154 55.2029 293.803 55.9016 296.758 55.9016Z" fill="white" style="fill:white;fill-opacity:1;"/>
<path d="M165.217 46.7566C161.291 60.8035 151.496 64.0063 146.679 63.6577C155.517 55.7603 158.439 48.7188 158.987 45.1311C159.09 44.4514 159.77 43.9424 160.428 44.1419L161.431 44.4458C161.431 45.9755 163.107 45.8689 163.442 45.1574L164.594 45.5646C165.081 45.737 165.356 46.2588 165.217 46.7566Z" fill="white" style="fill:white;fill-opacity:1;"/>
<path d="M129.129 6.20124C129.129 4.57644 127.812 3.25928 126.187 3.25928C124.563 3.25928 123.245 4.57644 123.245 6.20124V41.412C123.222 41.815 123.21 42.2211 123.21 42.6298C123.21 53.5118 131.612 62.4768 142.43 63.6827C144.555 62.2056 148.049 58.5389 149.545 56.8728C148.085 57.3241 146.531 57.5675 144.919 57.5675C144.721 57.5675 144.524 57.5639 144.328 57.5567C136.151 57.2548 129.616 50.6866 129.616 42.6298C129.616 34.38 136.467 27.6921 144.919 27.6921C153.139 27.6921 159.845 34.0191 160.206 41.9564L160.221 41.9351C161.866 42.2026 164.904 42.8411 166.604 43.6283C166.619 43.2974 166.627 42.9645 166.627 42.6298C166.627 30.9265 156.908 21.4391 144.919 21.4391C138.697 21.4391 133.087 23.9937 129.129 28.0869V6.20124Z" fill="white" style="fill:white;fill-opacity:1;"/>
<path fill-rule="evenodd" clip-rule="evenodd" d="M0.704689 12.0851C0.248263 13.3679 0 14.7477 0 16.1848V24.5175C3.97933 24.6871 7.15733 28.2349 7.15733 32.5868C7.15733 36.9386 3.97933 40.4865 0 40.656V48.9887C0 55.8078 5.58958 61.3358 12.4847 61.3358H95.471C102.366 61.3358 107.956 55.8078 107.956 48.9887V40.656C107.857 40.6602 107.757 40.6624 107.658 40.6624C103.54 40.6624 100.202 37.0468 100.202 32.5868C100.202 28.1268 103.54 24.5112 107.658 24.5112C107.757 24.5112 107.857 24.5133 107.956 24.5175V16.1848C107.956 14.7477 107.707 13.3679 107.251 12.0851H0.704689ZM0.875946 11.6325H107.08C105.248 7.06634 100.741 3.83768 95.471 3.83768H12.4847C7.2152 3.83768 2.70821 7.06634 0.875946 11.6325ZM62.0588 43.4213C62.5104 43.293 62.7725 42.8229 62.6441 42.3714C62.5158 41.9198 62.0457 41.6577 61.5942 41.7861C54.5816 43.7787 49.4514 43.3095 45.8401 41.7833C42.2274 40.2565 40.0556 37.6396 39.0059 35.1859C38.8213 34.7543 38.3217 34.5541 37.8901 34.7388C37.4585 34.9234 37.2583 35.423 37.443 35.8546C38.6523 38.6814 41.1302 41.6383 45.1783 43.3492C49.2276 45.0606 54.7689 45.4928 62.0588 43.4213ZM48.5584 22.4328C47.5757 22.6519 46.7401 23.0734 46.3382 23.4418C45.9922 23.759 45.4545 23.7356 45.1373 23.3896C44.8201 23.0436 44.8434 22.5059 45.1895 22.1886C45.8792 21.5564 47.0213 21.0338 48.1884 20.7736C49.3539 20.5137 50.7346 20.473 51.8683 21.0197C52.2912 21.2236 52.4687 21.7317 52.2648 22.1545C52.0609 22.5774 51.5528 22.7549 51.13 22.551C50.4838 22.2394 49.5426 22.2134 48.5584 22.4328ZM58.3893 22.3629C57.9431 22.4177 57.6986 22.5007 57.6386 22.5331C57.2256 22.7563 56.7099 22.6025 56.4867 22.1895C56.2635 21.7765 56.4174 21.2607 56.8304 21.0376C57.1775 20.85 57.6805 20.7371 58.1821 20.6756C58.7131 20.6104 59.3448 20.5907 60.0065 20.6444C61.3005 20.7492 62.8609 21.148 63.9554 22.2034C64.2933 22.5293 64.303 23.0674 63.9772 23.4053C63.6513 23.7432 63.1132 23.753 62.7753 23.4271C62.0898 22.7661 60.992 22.4298 59.8692 22.3388C59.3224 22.2945 58.8061 22.3117 58.3893 22.3629ZM47.8441 27.2374C47.4497 27.5227 47.2072 27.9204 47.2072 28.4797C47.2072 28.9492 46.8266 29.3297 46.3572 29.3297C45.8877 29.3297 45.5072 28.9492 45.5072 28.4797C45.5072 27.3225 46.0557 26.4329 46.8479 25.8599C47.615 25.3051 48.5908 25.055 49.5215 25.055C50.4521 25.055 51.4279 25.3051 52.1951 25.8599C52.9872 26.4329 53.5358 27.3225 53.5358 28.4797C53.5358 28.9492 53.1552 29.3297 52.6858 29.3297C52.2163 29.3297 51.8358 28.9492 51.8358 28.4797C51.8358 27.9204 51.5932 27.5227 51.1988 27.2374C50.7793 26.934 50.173 26.755 49.5215 26.755C48.87 26.755 48.2636 26.934 47.8441 27.2374ZM58.1282 27.2374C57.7337 27.5227 57.4912 27.9204 57.4912 28.4797C57.4912 28.9492 57.1106 29.3297 56.6412 29.3297C56.1717 29.3297 55.7912 28.9492 55.7912 28.4797C55.7912 27.3225 56.3397 26.4329 57.1319 25.8599C57.899 25.3051 58.8748 25.055 59.8055 25.055C60.7361 25.055 61.7119 25.3051 62.4791 25.8599C63.2712 26.4329 63.8198 27.3225 63.8198 28.4797C63.8198 28.9492 63.4392 29.3297 62.9698 29.3297C62.5003 29.3297 62.1198 28.9492 62.1198 28.4797C62.1198 27.9204 61.8772 27.5227 61.4828 27.2374C61.0633 26.934 60.457 26.755 59.8055 26.755C59.154 26.755 58.5476 26.934 58.1282 27.2374ZM15.0811 13.7252C15.0811 13.449 14.8573 13.2252 14.5811 13.2252C14.305 13.2252 14.0811 13.449 14.0811 13.7252V17.1539C14.0811 17.4301 14.305 17.6539 14.5811 17.6539C14.8573 17.6539 15.0811 17.4301 15.0811 17.1539V13.7252ZM14.5811 19.1302C14.8572 19.1302 15.0811 19.3541 15.0811 19.6302V23.059C15.0811 23.3351 14.8572 23.559 14.5811 23.559C14.3049 23.559 14.0811 23.3351 14.0811 23.059V19.6302C14.0811 19.3541 14.3049 19.1302 14.5811 19.1302ZM15.0811 25.5349C15.0811 25.2588 14.8572 25.0349 14.5811 25.0349C14.3049 25.0349 14.0811 25.2588 14.0811 25.5349V28.9637C14.0811 29.2398 14.3049 29.4637 14.5811 29.4637C14.8572 29.4637 15.0811 29.2398 15.0811 28.9637V25.5349ZM14.5811 30.9402C14.8572 30.9402 15.0811 31.164 15.0811 31.4402V34.8689C15.0811 35.1451 14.8572 35.3689 14.5811 35.3689C14.3049 35.3689 14.0811 35.1451 14.0811 34.8689V31.4402C14.0811 31.164 14.3049 30.9402 14.5811 30.9402ZM15.0811 43.2502C15.0811 42.974 14.8572 42.7502 14.5811 42.7502C14.3049 42.7502 14.0811 42.974 14.0811 43.2502V46.6789C14.0811 46.9551 14.3049 47.1789 14.5811 47.1789C14.8572 47.1789 15.0811 46.9551 15.0811 46.6789V43.2502ZM14.5811 54.5601C14.8572 54.5601 15.0811 54.784 15.0811 55.0601V58.4889C15.0811 58.765 14.8572 58.9889 14.5811 58.9889C14.3049 58.9889 14.0811 58.765 14.0811 58.4889V55.0601C14.0811 54.784 14.3049 54.5601 14.5811 54.5601ZM15.0811 49.1549C15.0811 48.8787 14.8572 48.6549 14.5811 48.6549C14.3049 48.6549 14.0811 48.8787 14.0811 49.1549V52.5836C14.0811 52.8598 14.3049 53.0836 14.5811 53.0836C14.8572 53.0836 15.0811 52.8598 15.0811 52.5836V49.1549ZM14.5811 36.8449C14.8572 36.8449 15.0811 37.0687 15.0811 37.3449V40.7737C15.0811 41.0498 14.8572 41.2737 14.5811 41.2737C14.3049 41.2737 14.0811 41.0498 14.0811 40.7737V37.3449C14.0811 37.0687 14.3049 36.8449 14.5811 36.8449ZM95.3747 13.7251C95.3747 13.449 95.1508 13.2251 94.8747 13.2251C94.5986 13.2251 94.3747 13.449 94.3747 13.7251V17.1539C94.3747 17.43 94.5986 17.6539 94.8747 17.6539C95.1508 17.6539 95.3747 17.43 95.3747 17.1539V13.7251ZM94.8747 19.1302C95.1508 19.1302 95.3747 19.354 95.3747 19.6302V23.0589C95.3747 23.3351 95.1508 23.5589 94.8747 23.5589C94.5985 23.5589 94.3747 23.3351 94.3747 23.0589V19.6302C94.3747 19.354 94.5985 19.1302 94.8747 19.1302ZM95.3747 25.5349C95.3747 25.2587 95.1508 25.0349 94.8747 25.0349C94.5985 25.0349 94.3747 25.2587 94.3747 25.5349V28.9636C94.3747 29.2398 94.5985 29.4636 94.8747 29.4636C95.1508 29.4636 95.3747 29.2398 95.3747 28.9636V25.5349ZM94.8747 30.9401C95.1508 30.9401 95.3747 31.164 95.3747 31.4401V34.8689C95.3747 35.145 95.1508 35.3689 94.8747 35.3689C94.5985 35.3689 94.3747 35.145 94.3747 34.8689V31.4401C94.3747 31.164 94.5985 30.9401 94.8747 30.9401ZM95.3747 43.2501C95.3747 42.974 95.1508 42.7501 94.8747 42.7501C94.5985 42.7501 94.3747 42.974 94.3747 43.2501V46.6789C94.3747 46.955 94.5985 47.1789 94.8747 47.1789C95.1508 47.1789 95.3747 46.955 95.3747 46.6789V43.2501ZM94.8747 54.5601C95.1508 54.5601 95.3747 54.7839 95.3747 55.0601V58.4888C95.3747 58.765 95.1508 58.9888 94.8747 58.9888C94.5985 58.9888 94.3747 58.765 94.3747 58.4888V55.0601C94.3747 54.7839 94.5985 54.5601 94.8747 54.5601ZM95.3747 49.1548C95.3747 48.8787 95.1508 48.6548 94.8747 48.6548C94.5985 48.6548 94.3747 48.8787 94.3747 49.1548V52.5836C94.3747 52.8597 94.5985 53.0836 94.8747 53.0836C95.1508 53.0836 95.3747 52.8597 95.3747 52.5836V49.1548ZM94.8747 36.8449C95.1508 36.8449 95.3747 37.0687 95.3747 37.3449V40.7736C95.3747 41.0498 95.1508 41.2736 94.8747 41.2736C94.5985 41.2736 94.3747 41.0498 94.3747 40.7736V37.3449C94.3747 37.0687 94.5985 36.8449 94.8747 36.8449Z" fill="white" style="fill:white;fill-opacity:1;"/>
</svg>
