<svg width="703" height="140" viewBox="0 0 703 140" fill="none" xmlns="http://www.w3.org/2000/svg">
<path d="M390.305 133.957C388.279 133.957 386.647 133.385 385.409 132.242C384.284 130.984 383.721 129.326 383.721 127.268V46.825C383.721 44.7667 384.284 43.1659 385.409 42.0224C386.647 40.7646 388.279 40.1357 390.305 40.1357C392.219 40.1357 393.738 40.7646 394.864 42.0224C396.102 43.1659 396.721 44.7667 396.721 46.825V127.268C396.721 129.326 396.102 130.984 394.864 132.242C393.738 133.385 392.219 133.957 390.305 133.957ZM390.137 22.2976C387.66 22.2976 385.522 21.3828 383.721 19.5533C381.92 17.7237 381.02 15.494 381.02 12.864C381.02 10.0053 381.92 7.77558 383.721 6.17472C385.635 4.45952 387.829 3.60192 390.305 3.60192C392.669 3.60192 394.751 4.45952 396.552 6.17472C398.465 7.77558 399.422 10.0053 399.422 12.864C399.422 15.494 398.521 17.7237 396.721 19.5533C394.92 21.3828 392.725 22.2976 390.137 22.2976Z" fill="white"/>
<path d="M442.209 133.957C437.707 133.957 433.656 132.699 430.054 130.184C426.565 127.668 423.808 124.181 421.782 119.721C419.868 115.262 418.912 110.116 418.912 104.284V6.51776C418.912 4.57387 419.474 3.03018 420.6 1.88672C421.838 0.628906 423.414 0 425.327 0C427.24 0 428.76 0.628906 429.885 1.88672C431.123 3.03018 431.742 4.57387 431.742 6.51776V104.284C431.742 109.201 432.699 113.203 434.612 116.291C436.638 119.378 439.171 120.922 442.209 120.922H446.43C448.118 120.922 449.469 121.551 450.482 122.808C451.495 123.952 452.001 125.496 452.001 127.439C452.001 129.383 451.27 130.984 449.806 132.242C448.456 133.385 446.655 133.957 444.404 133.957H442.209Z" fill="white"/>
<path d="M501.673 134.815C492.556 134.815 484.453 132.814 477.362 128.812C470.384 124.695 464.869 119.035 460.818 111.831C456.878 104.627 454.909 96.3943 454.909 87.1322C454.909 77.7558 456.766 69.5228 460.48 62.4333C464.307 55.2295 469.54 49.5693 476.181 45.4528C482.821 41.3363 490.474 39.2781 499.141 39.2781C507.694 39.2781 515.123 41.2792 521.425 45.2813C527.841 49.1691 532.793 54.6006 536.282 61.5757C539.771 68.5509 541.516 76.498 541.516 85.417C541.516 87.2466 540.953 88.7331 539.827 89.8765C538.702 90.9056 537.239 91.4202 535.438 91.4202H463.688V80.4429H536.788L529.529 85.76C529.642 79.1279 528.46 73.1819 525.984 67.922C523.508 62.662 519.962 58.5455 515.348 55.5725C510.846 52.5995 505.443 51.113 499.141 51.113C492.725 51.113 487.098 52.6567 482.258 55.744C477.419 58.8314 473.648 63.1194 470.947 68.608C468.358 73.9823 467.064 80.1571 467.064 87.1322C467.064 94.1074 468.527 100.282 471.453 105.656C474.492 111.031 478.6 115.262 483.778 118.349C488.955 121.436 494.92 122.98 501.673 122.98C505.725 122.98 509.777 122.294 513.828 120.922C517.993 119.435 521.313 117.606 523.789 115.433C525.027 114.404 526.434 113.889 528.01 113.889C529.585 113.775 530.936 114.175 532.061 115.09C533.525 116.462 534.256 117.949 534.256 119.549C534.369 121.15 533.75 122.523 532.399 123.666C528.685 126.868 523.958 129.555 518.218 131.727C512.478 133.786 506.963 134.815 501.673 134.815Z" fill="white"/>
<path d="M589.724 133.957C583.759 133.957 578.413 132.528 573.686 129.669C569.071 126.811 565.413 122.923 562.712 118.006C560.011 112.975 558.661 107.257 558.661 100.854V16.9805C558.661 15.0366 559.223 13.4357 560.349 12.1779C561.587 10.9201 563.163 10.2912 565.076 10.2912C566.989 10.2912 568.565 10.9201 569.803 12.1779C571.041 13.4357 571.66 15.0366 571.66 16.9805V100.854C571.66 106.686 573.348 111.488 576.725 115.262C580.101 118.921 584.434 120.75 589.724 120.75H594.282C596.083 120.75 600.75 120.706 602.327 120.706C603.87 120.706 613.125 119.922 618.524 113.652C625.775 114.168 627.008 123.351 627.008 124.625C615.439 134.815 601.556 133.957 600.013 133.957C598.471 133.957 595.386 134.031 593.269 133.957H589.724ZM547.687 55.0579C545.999 55.0579 544.592 54.5434 543.466 53.5143C542.341 52.3708 541.778 50.9986 541.778 49.3978C541.778 47.6826 542.341 46.3104 543.466 45.2813C544.592 44.1378 545.999 43.5661 547.687 43.5661H590.737C592.425 43.5661 593.832 44.1378 594.958 45.2813C596.083 46.3104 596.646 47.6826 596.646 49.3978C596.646 50.9986 596.083 52.3708 594.958 53.5143C593.832 54.5434 592.425 55.0579 590.737 55.0579H547.687Z" fill="white"/>
<path d="M655.659 134.815C646.655 134.815 638.608 132.757 631.518 128.64C624.427 124.524 618.856 118.863 614.804 111.66C610.752 104.456 608.726 96.2799 608.726 87.1322C608.726 77.8701 610.752 69.6372 614.804 62.4333C618.856 55.2295 624.427 49.5693 631.518 45.4528C638.608 41.3363 646.655 39.2781 655.659 39.2781C664.663 39.2781 672.654 41.3363 679.632 45.4528C686.723 49.5693 692.294 55.2295 696.346 62.4333C700.398 69.6372 702.48 77.8701 702.592 87.1322C702.592 96.2799 700.51 104.456 696.346 111.66C692.294 118.863 686.723 124.524 679.632 128.64C672.654 132.757 664.663 134.815 655.659 134.815ZM655.659 122.808C662.187 122.808 668.04 121.265 673.217 118.177C678.394 115.09 682.446 110.859 685.372 105.485C688.299 100.111 689.762 93.993 689.762 87.1322C689.762 80.2714 688.299 74.1539 685.372 68.7796C682.446 63.2909 678.394 59.0029 673.217 55.9155C668.04 52.8282 662.187 51.2845 655.659 51.2845C649.132 51.2845 643.279 52.8282 638.102 55.9155C632.924 59.0029 628.816 63.2909 625.778 68.7796C622.851 74.1539 621.388 80.2714 621.388 87.1322C621.388 93.993 622.851 100.111 625.778 105.485C628.816 110.859 632.924 115.09 638.102 118.177C643.279 121.265 649.132 122.808 655.659 122.808Z" fill="white"/>
<path d="M278.8 13V95.963" stroke="white" stroke-width="13" stroke-linecap="round"/>
<path d="M365.323 101.538C356.85 133.477 334.839 140.724 324.074 139.945C345.097 121.159 350.969 104.565 351.456 97.3265C351.502 96.6405 352.168 96.1341 352.826 96.3335L356.667 97.498C357.259 101.271 360.371 100.642 361.111 99.0701L364.695 100.338C365.183 100.51 365.456 101.038 365.323 101.538Z" fill="#E4E4E4"/>
<path d="M286.375 93.4857C286.375 75.2584 301.512 60.4822 320.185 60.4822C338.347 60.4822 353.164 74.461 353.961 91.9979L353.995 91.9507C357.629 92.5418 364.341 93.9525 368.096 95.6918C368.131 94.9607 368.148 94.2252 368.148 93.4857C368.148 67.6283 346.674 46.6667 320.185 46.6667C293.696 46.6667 272.222 67.6283 272.222 93.4857C272.222 117.528 290.785 137.336 314.687 140C319.383 136.737 327.101 128.635 330.406 124.954C327.181 125.951 323.748 126.489 320.185 126.489C319.748 126.489 319.313 126.481 318.88 126.465C300.815 125.798 286.375 111.286 286.375 93.4857Z" fill="white"/>
<path fill-rule="evenodd" clip-rule="evenodd" d="M0 35.0577C0 19.9914 12.3497 7.77783 27.5838 7.77783H210.935C226.169 7.77783 238.518 19.9914 238.518 35.0577V53.4681C238.3 53.4588 238.08 53.4541 237.86 53.4541C228.762 53.4541 221.387 61.4424 221.387 71.2964C221.387 81.1504 228.762 89.1387 237.86 89.1387C238.08 89.1387 238.3 89.134 238.518 89.1246V107.535C238.518 122.601 226.169 134.815 210.935 134.815H27.5838C12.3497 134.815 0 122.601 0 107.535V89.1246C8.79197 88.7501 15.8135 80.9114 15.8135 71.2964C15.8135 61.6814 8.79197 53.8427 0 53.4681V35.0577ZM138.284 92.9497C138.548 93.8794 138.008 94.8472 137.079 95.1114C120.993 99.6822 108.781 98.7244 99.8673 94.9572C90.9563 91.1911 85.5045 84.6836 82.8447 78.4661C82.4645 77.5775 82.8767 76.549 83.7653 76.1689C84.6539 75.7887 85.6824 76.2009 86.0626 77.0895C88.3937 82.5387 93.2153 88.3461 101.23 91.7333C109.242 95.1193 120.607 96.1532 136.122 91.7447C137.052 91.4805 138.019 92.02 138.284 92.9497ZM102.294 50.997C103.203 50.1632 105.073 49.2244 107.257 48.7372C109.446 48.2493 111.558 48.3019 113.023 49.008C113.893 49.4278 114.939 49.0623 115.359 48.1918C115.779 47.3212 115.413 46.2751 114.543 45.8554C112.075 44.6652 109.057 44.75 106.496 45.3211C103.931 45.893 101.431 47.0399 99.9285 48.4171C99.2161 49.0702 99.168 50.1772 99.8211 50.8896C100.474 51.602 101.581 51.6501 102.294 50.997ZM127.286 48.9712C127.441 48.8879 128 48.7022 128.99 48.5806C129.92 48.4665 131.069 48.4283 132.286 48.5269C134.78 48.729 137.24 49.4766 138.785 50.9668C139.481 51.6377 140.589 51.6176 141.26 50.9219C141.931 50.2262 141.91 49.1184 141.215 48.4475C138.827 46.1452 135.415 45.2689 132.569 45.0383C131.115 44.9206 129.728 44.9637 128.564 45.1067C127.46 45.2423 126.368 45.4893 125.622 45.8921C124.772 46.3516 124.455 47.4134 124.915 48.2637C125.374 49.1139 126.436 49.4307 127.286 48.9712ZM104.172 62.2223C104.172 60.9415 104.731 60.0257 105.632 59.3737C106.585 58.6845 107.953 58.2836 109.413 58.2836C110.874 58.2836 112.241 58.6845 113.194 59.3737C114.096 60.0257 114.654 60.9415 114.654 62.2223C114.654 63.1888 115.438 63.9723 116.404 63.9723C117.371 63.9723 118.154 63.1888 118.154 62.2223C118.154 59.7106 116.966 57.782 115.245 56.5378C113.577 55.3308 111.448 54.7836 109.413 54.7836C107.378 54.7836 105.25 55.3308 103.581 56.5378C101.861 57.782 100.672 59.7106 100.672 62.2223C100.672 63.1888 101.455 63.9723 102.422 63.9723C103.388 63.9723 104.172 63.1888 104.172 62.2223ZM126.894 62.2223C126.894 60.9415 127.452 60.0257 128.354 59.3737C129.307 58.6845 130.674 58.2836 132.135 58.2836C133.595 58.2836 134.963 58.6845 135.916 59.3737C136.817 60.0257 137.376 60.9415 137.376 62.2223C137.376 63.1888 138.16 63.9723 139.126 63.9723C140.093 63.9723 140.876 63.1888 140.876 62.2223C140.876 59.7106 139.687 57.782 137.967 56.5378C136.298 55.3308 134.17 54.7836 132.135 54.7836C130.1 54.7836 127.971 55.3308 126.303 56.5378C124.582 57.782 123.394 59.7106 123.394 62.2223C123.394 63.1888 124.177 63.9723 125.144 63.9723C126.11 63.9723 126.894 63.1888 126.894 62.2223ZM31.6111 28.5186C31.8872 28.5186 32.1111 28.7425 32.1111 29.0186V37.8036C32.1111 38.0797 31.8872 38.3036 31.6111 38.3036C31.3349 38.3036 31.1111 38.0797 31.1111 37.8036V29.0186C31.1111 28.7425 31.3349 28.5186 31.6111 28.5186ZM32.1111 42.0655C32.1111 41.7893 31.8872 41.5655 31.6111 41.5655C31.3349 41.5655 31.1111 41.7893 31.1111 42.0655V50.8504C31.1111 51.1266 31.3349 51.3504 31.6111 51.3504C31.8872 51.3504 32.1111 51.1266 32.1111 50.8504V42.0655ZM31.6111 54.6116C31.8872 54.6116 32.1111 54.8355 32.1111 55.1116V63.8966C32.1111 64.1727 31.8872 64.3966 31.6111 64.3966C31.3349 64.3966 31.1111 64.1727 31.1111 63.8966V55.1116C31.1111 54.8355 31.3349 54.6116 31.6111 54.6116ZM32.1111 68.1585C32.1111 67.8823 31.8872 67.6585 31.6111 67.6585C31.3349 67.6585 31.1111 67.8823 31.1111 68.1585V76.9434C31.1111 77.2195 31.3349 77.4434 31.6111 77.4434C31.8872 77.4434 32.1111 77.2195 32.1111 76.9434V68.1585ZM31.6111 93.7516C31.8872 93.7516 32.1111 93.9755 32.1111 94.2516V103.037C32.1111 103.313 31.8872 103.537 31.6111 103.537C31.3349 103.537 31.1111 103.313 31.1111 103.037V94.2516C31.1111 93.9755 31.3349 93.7516 31.6111 93.7516ZM32.1111 120.345C32.1111 120.069 31.8872 119.845 31.6111 119.845C31.3349 119.845 31.1111 120.069 31.1111 120.345V129.13C31.1111 129.406 31.3349 129.63 31.6111 129.63C31.8872 129.63 32.1111 129.406 32.1111 129.13V120.345ZM31.6111 106.798C31.8872 106.798 32.1111 107.022 32.1111 107.298V116.083C32.1111 116.359 31.8872 116.583 31.6111 116.583C31.3349 116.583 31.1111 116.359 31.1111 116.083V107.298C31.1111 107.022 31.3349 106.798 31.6111 106.798ZM32.1111 81.2047C32.1111 80.9286 31.8872 80.7047 31.6111 80.7047C31.3349 80.7047 31.1111 80.9286 31.1111 81.2047V89.9896C31.1111 90.2658 31.3349 90.4896 31.6111 90.4896C31.8872 90.4896 32.1111 90.2658 32.1111 89.9896V81.2047ZM209.012 28.5186C209.289 28.5186 209.512 28.7425 209.512 29.0186V37.8036C209.512 38.0797 209.289 38.3036 209.012 38.3036C208.736 38.3036 208.512 38.0797 208.512 37.8036V29.0186C208.512 28.7425 208.736 28.5186 209.012 28.5186ZM209.513 42.0655C209.513 41.7893 209.289 41.5655 209.013 41.5655C208.736 41.5655 208.513 41.7893 208.513 42.0655V50.8504C208.513 51.1266 208.736 51.3504 209.013 51.3504C209.289 51.3504 209.513 51.1266 209.513 50.8504V42.0655ZM209.013 54.6116C209.289 54.6116 209.513 54.8355 209.513 55.1116V63.8966C209.513 64.1727 209.289 64.3966 209.013 64.3966C208.736 64.3966 208.513 64.1727 208.513 63.8966V55.1116C208.513 54.8355 208.736 54.6116 209.013 54.6116ZM209.513 68.1585C209.513 67.8823 209.289 67.6585 209.013 67.6585C208.736 67.6585 208.513 67.8823 208.513 68.1585V76.9434C208.513 77.2195 208.736 77.4434 209.013 77.4434C209.289 77.4434 209.513 77.2195 209.513 76.9434V68.1585ZM209.013 93.7516C209.289 93.7516 209.513 93.9755 209.513 94.2516V103.037C209.513 103.313 209.289 103.537 209.013 103.537C208.736 103.537 208.513 103.313 208.513 103.037V94.2516C208.513 93.9755 208.736 93.7516 209.013 93.7516ZM209.513 120.345C209.513 120.069 209.289 119.845 209.013 119.845C208.736 119.845 208.513 120.069 208.513 120.345V129.13C208.513 129.406 208.736 129.63 209.013 129.63C209.289 129.63 209.513 129.406 209.513 129.13V120.345ZM209.013 106.798C209.289 106.798 209.513 107.022 209.513 107.298V116.083C209.513 116.359 209.289 116.583 209.013 116.583C208.736 116.583 208.513 116.359 208.513 116.083V107.298C208.513 107.022 208.736 106.798 209.013 106.798ZM209.513 81.2047C209.513 80.9286 209.289 80.7047 209.013 80.7047C208.736 80.7047 208.513 80.9286 208.513 81.2047V89.9896C208.513 90.2658 208.736 90.4896 209.013 90.4896C209.289 90.4896 209.513 90.2658 209.513 89.9896V81.2047Z" fill="white"/>
<path d="M210.935 7.78176H27.5841C15.5884 7.78176 5.38122 15.3546 1.58362 25.9299H236.935C233.138 15.3546 222.931 7.78176 210.935 7.78176Z" fill="#E4E4E4"/>
</svg>
