<svg width="703" height="140" viewBox="0 0 703 140" fill="none" xmlns="http://www.w3.org/2000/svg">
<path d="M390.305 133.957C388.279 133.957 386.647 133.385 385.409 132.242C384.284 130.984 383.721 129.326 383.721 127.268V46.825C383.721 44.7667 384.284 43.1659 385.409 42.0224C386.647 40.7646 388.279 40.1357 390.305 40.1357C392.219 40.1357 393.738 40.7646 394.864 42.0224C396.102 43.1659 396.721 44.7667 396.721 46.825V127.268C396.721 129.326 396.102 130.984 394.864 132.242C393.738 133.385 392.219 133.957 390.305 133.957ZM390.137 22.2976C387.66 22.2976 385.522 21.3828 383.721 19.5533C381.92 17.7237 381.02 15.494 381.02 12.864C381.02 10.0053 381.92 7.77558 383.721 6.17472C385.635 4.45952 387.829 3.60192 390.305 3.60192C392.669 3.60192 394.751 4.45952 396.552 6.17472C398.465 7.77558 399.422 10.0053 399.422 12.864C399.422 15.494 398.521 17.7237 396.721 19.5533C394.92 21.3828 392.725 22.2976 390.137 22.2976Z" fill="white"/>
<path d="M442.209 133.957C437.707 133.957 433.656 132.699 430.054 130.184C426.565 127.668 423.808 124.181 421.782 119.721C419.868 115.262 418.912 110.116 418.912 104.284V6.51776C418.912 4.57387 419.474 3.03018 420.6 1.88672C421.838 0.628906 423.414 0 425.327 0C427.24 0 428.76 0.628906 429.885 1.88672C431.123 3.03018 431.742 4.57387 431.742 6.51776V104.284C431.742 109.201 432.699 113.203 434.612 116.291C436.638 119.378 439.171 120.922 442.209 120.922H446.43C448.118 120.922 449.469 121.551 450.482 122.808C451.495 123.952 452.001 125.496 452.001 127.439C452.001 129.383 451.27 130.984 449.806 132.242C448.456 133.385 446.655 133.957 444.404 133.957H442.209Z" fill="white"/>
<path d="M501.673 134.815C492.556 134.815 484.453 132.814 477.362 128.812C470.384 124.695 464.869 119.035 460.818 111.831C456.878 104.627 454.909 96.3943 454.909 87.1322C454.909 77.7558 456.766 69.5228 460.48 62.4333C464.307 55.2295 469.54 49.5693 476.181 45.4528C482.821 41.3363 490.474 39.2781 499.141 39.2781C507.694 39.2781 515.123 41.2792 521.425 45.2813C527.841 49.1691 532.793 54.6006 536.282 61.5757C539.771 68.5509 541.516 76.498 541.516 85.417C541.516 87.2466 540.953 88.7331 539.827 89.8765C538.702 90.9056 537.239 91.4202 535.438 91.4202H463.688V80.4429H536.788L529.529 85.76C529.642 79.1279 528.46 73.1819 525.984 67.922C523.508 62.662 519.962 58.5455 515.348 55.5725C510.846 52.5995 505.443 51.113 499.141 51.113C492.725 51.113 487.098 52.6567 482.258 55.744C477.419 58.8314 473.648 63.1194 470.947 68.608C468.358 73.9823 467.064 80.1571 467.064 87.1322C467.064 94.1074 468.527 100.282 471.453 105.656C474.492 111.031 478.6 115.262 483.778 118.349C488.955 121.436 494.92 122.98 501.673 122.98C505.725 122.98 509.777 122.294 513.828 120.922C517.993 119.435 521.313 117.606 523.789 115.433C525.027 114.404 526.434 113.889 528.01 113.889C529.585 113.775 530.936 114.175 532.061 115.09C533.525 116.462 534.256 117.949 534.256 119.549C534.369 121.15 533.75 122.523 532.399 123.666C528.685 126.868 523.958 129.555 518.218 131.727C512.478 133.786 506.963 134.815 501.673 134.815Z" fill="white"/>
<path d="M589.724 133.957C583.759 133.957 578.413 132.528 573.686 129.669C569.071 126.811 565.413 122.923 562.712 118.006C560.011 112.975 558.661 107.257 558.661 100.854V16.9805C558.661 15.0366 559.223 13.4357 560.349 12.1779C561.587 10.9201 563.163 10.2912 565.076 10.2912C566.989 10.2912 568.565 10.9201 569.803 12.1779C571.041 13.4357 571.66 15.0366 571.66 16.9805V100.854C571.66 106.686 573.348 111.488 576.725 115.262C580.101 118.921 584.434 120.75 589.724 120.75H594.282C596.083 120.75 600.75 120.706 602.327 120.706C603.87 120.706 613.125 119.922 618.524 113.652C625.775 114.168 627.008 123.351 627.008 124.625C615.439 134.815 601.556 133.957 600.013 133.957C598.471 133.957 595.386 134.031 593.269 133.957H589.724ZM547.687 55.0579C545.999 55.0579 544.592 54.5434 543.466 53.5143C542.341 52.3708 541.778 50.9986 541.778 49.3978C541.778 47.6826 542.341 46.3104 543.466 45.2813C544.592 44.1378 545.999 43.5661 547.687 43.5661H590.737C592.425 43.5661 593.832 44.1378 594.958 45.2813C596.083 46.3104 596.646 47.6826 596.646 49.3978C596.646 50.9986 596.083 52.3708 594.958 53.5143C593.832 54.5434 592.425 55.0579 590.737 55.0579H547.687Z" fill="white"/>
<path d="M655.659 134.815C646.655 134.815 638.608 132.757 631.518 128.64C624.427 124.524 618.856 118.863 614.804 111.66C610.752 104.456 608.726 96.2799 608.726 87.1322C608.726 77.8701 610.752 69.6372 614.804 62.4333C618.856 55.2295 624.427 49.5693 631.518 45.4528C638.608 41.3363 646.655 39.2781 655.659 39.2781C664.663 39.2781 672.654 41.3363 679.632 45.4528C686.723 49.5693 692.294 55.2295 696.346 62.4333C700.398 69.6372 702.48 77.8701 702.592 87.1322C702.592 96.2799 700.51 104.456 696.346 111.66C692.294 118.863 686.723 124.524 679.632 128.64C672.654 132.757 664.663 134.815 655.659 134.815ZM655.659 122.808C662.187 122.808 668.04 121.265 673.217 118.177C678.394 115.09 682.446 110.859 685.372 105.485C688.299 100.111 689.762 93.993 689.762 87.1322C689.762 80.2714 688.299 74.1539 685.372 68.7796C682.446 63.2909 678.394 59.0029 673.217 55.9155C668.04 52.8282 662.187 51.2845 655.659 51.2845C649.132 51.2845 643.279 52.8282 638.102 55.9155C632.924 59.0029 628.816 63.2909 625.778 68.7796C622.851 74.1539 621.388 80.2714 621.388 87.1322C621.388 93.993 622.851 100.111 625.778 105.485C628.816 110.859 632.924 115.09 638.102 118.177C643.279 121.265 649.132 122.808 655.659 122.808Z" fill="white"/>
<path d="M278.8 13V95.963" stroke="white" stroke-width="13" stroke-linecap="round"/>
<path d="M365.323 101.538C356.85 133.477 334.839 140.724 324.074 139.945C345.097 121.159 350.969 104.565 351.456 97.3265C351.502 96.6405 352.168 96.1341 352.826 96.3335L356.667 97.498C357.259 101.271 360.371 100.642 361.111 99.0701L364.695 100.338C365.183 100.51 365.456 101.038 365.323 101.538Z" fill="#E4E4E4"/>
<path d="M286.375 93.4857C286.375 75.2583 301.512 60.4821 320.185 60.4821C338.347 60.4821 353.164 74.461 353.961 91.9978L353.995 91.9506C357.629 92.5418 364.341 93.9525 368.096 95.6918C368.131 94.9607 368.148 94.2252 368.148 93.4857C368.148 67.6283 346.674 46.6667 320.185 46.6667C293.696 46.6667 272.222 67.6283 272.222 93.4857C272.222 117.528 290.785 137.336 314.687 140C319.383 136.737 327.101 128.635 330.406 124.954C327.181 125.951 323.748 126.489 320.185 126.489C319.748 126.489 319.313 126.481 318.88 126.465C300.815 125.798 286.375 111.286 286.375 93.4857Z" fill="white"/>
<path fill-rule="evenodd" clip-rule="evenodd" d="M0 35.0576C0 19.9914 12.3497 7.77777 27.5838 7.77777H210.935C226.169 7.77777 238.518 19.9914 238.518 35.0576V53.468C238.3 53.4587 238.08 53.454 237.86 53.454C228.762 53.454 221.387 61.4423 221.387 71.2963C221.387 81.1503 228.762 89.1386 237.86 89.1386C238.08 89.1386 238.3 89.1339 238.518 89.1246V107.535C238.518 122.601 226.169 134.815 210.935 134.815H27.5838C12.3497 134.815 0 122.601 0 107.535V89.1246C8.79197 88.75 15.8135 80.9113 15.8135 71.2963C15.8135 61.6813 8.79197 53.8426 0 53.468V35.0576ZM137.562 93.1546C137.713 93.6859 137.405 94.2389 136.874 94.3899C120.91 98.926 108.88 97.9518 100.159 94.2663C91.4404 90.5814 86.1236 84.2239 83.5342 78.1711C83.317 77.6633 83.5525 77.0756 84.0603 76.8584C84.5681 76.6411 85.1558 76.8767 85.373 77.3845C87.7746 82.9983 92.7312 88.9556 100.938 92.424C109.143 95.8918 120.69 96.9094 136.327 92.466C136.858 92.3151 137.411 92.6234 137.562 93.1546ZM101.787 50.4441C102.823 49.4939 104.828 48.5105 107.094 48.0052C109.363 47.4994 111.669 47.5226 113.348 48.3324C113.846 48.5723 114.444 48.3634 114.684 47.8659C114.923 47.3685 114.715 46.7708 114.217 46.5309C111.964 45.4445 109.14 45.4998 106.659 46.0531C104.176 46.6068 101.811 47.7092 100.435 48.9698C100.028 49.343 100.001 49.9756 100.374 50.3827C100.747 50.7899 101.38 50.8173 101.787 50.4441ZM126.93 48.3114C127.211 48.1595 127.884 47.9607 128.899 47.8362C129.879 47.7159 131.079 47.6766 132.346 47.7793C134.916 47.9875 137.58 48.7627 139.306 50.4269C139.703 50.8103 140.336 50.7988 140.72 50.4012C141.103 50.0037 141.092 49.3707 140.694 48.9873C138.487 46.859 135.279 46.0103 132.508 45.7858C131.105 45.6721 129.769 45.7143 128.655 45.8511C127.575 45.9836 126.598 46.2175 125.979 46.5518C125.493 46.8144 125.312 47.4211 125.575 47.907C125.837 48.3929 126.444 48.5739 126.93 48.3114ZM103.422 62.2222C103.422 60.6777 104.116 59.5449 105.193 58.766C106.299 57.9658 107.83 57.5335 109.413 57.5335C110.997 57.5335 112.527 57.9658 113.634 58.766C114.711 59.5449 115.404 60.6777 115.404 62.2222C115.404 62.7745 115.852 63.2222 116.404 63.2222C116.957 63.2222 117.404 62.7745 117.404 62.2222C117.404 59.9743 116.351 58.2628 114.806 57.1454C113.29 56.0494 111.325 55.5335 109.413 55.5335C107.501 55.5335 105.536 56.0494 104.021 57.1454C102.476 58.2628 101.422 59.9743 101.422 62.2222C101.422 62.7745 101.87 63.2222 102.422 63.2222C102.974 63.2222 103.422 62.7745 103.422 62.2222ZM126.144 62.2222C126.144 60.6777 126.837 59.5449 127.914 58.766C129.021 57.9658 130.551 57.5335 132.135 57.5335C133.718 57.5335 135.249 57.9658 136.355 58.766C137.432 59.5449 138.126 60.6777 138.126 62.2222C138.126 62.7745 138.574 63.2222 139.126 63.2222C139.678 63.2222 140.126 62.7745 140.126 62.2222C140.126 59.9743 139.072 58.2628 137.527 57.1454C136.012 56.0494 134.047 55.5335 132.135 55.5335C130.223 55.5335 128.258 56.0494 126.742 57.1454C125.197 58.2628 124.144 59.9743 124.144 62.2222C124.144 62.7745 124.591 63.2222 125.144 63.2222C125.696 63.2222 126.144 62.7745 126.144 62.2222ZM31.3611 28.5186C31.4992 28.5186 31.6111 28.6305 31.6111 28.7686V38.0535C31.6111 38.1916 31.4992 38.3035 31.3611 38.3035C31.223 38.3035 31.1111 38.1916 31.1111 38.0535V28.7686C31.1111 28.6305 31.223 28.5186 31.3611 28.5186ZM31.6111 41.8154C31.6111 41.6773 31.4991 41.5654 31.3611 41.5654C31.223 41.5654 31.1111 41.6773 31.1111 41.8154V51.1004C31.1111 51.2384 31.223 51.3504 31.3611 51.3504C31.4991 51.3504 31.6111 51.2384 31.6111 51.1004V41.8154ZM31.3611 54.6116C31.4991 54.6116 31.6111 54.7235 31.6111 54.8616V64.1465C31.6111 64.2846 31.4991 64.3965 31.3611 64.3965C31.223 64.3965 31.1111 64.2846 31.1111 64.1465V54.8616C31.1111 54.7235 31.223 54.6116 31.3611 54.6116ZM31.6111 67.9084C31.6111 67.7703 31.4991 67.6584 31.3611 67.6584C31.223 67.6584 31.1111 67.7703 31.1111 67.9084V77.1933C31.1111 77.3314 31.223 77.4433 31.3611 77.4433C31.4991 77.4433 31.6111 77.3314 31.6111 77.1933V67.9084ZM31.3611 93.7515C31.4991 93.7515 31.6111 93.8635 31.6111 94.0015V103.286C31.6111 103.425 31.4991 103.536 31.3611 103.536C31.223 103.536 31.1111 103.425 31.1111 103.286V94.0015C31.1111 93.8635 31.223 93.7515 31.3611 93.7515ZM31.6111 120.095C31.6111 119.957 31.4991 119.845 31.3611 119.845C31.223 119.845 31.1111 119.957 31.1111 120.095V129.38C31.1111 129.518 31.223 129.63 31.3611 129.63C31.4991 129.63 31.6111 129.518 31.6111 129.38V120.095ZM31.3611 106.798C31.4991 106.798 31.6111 106.91 31.6111 107.048V116.333C31.6111 116.471 31.4991 116.583 31.3611 116.583C31.223 116.583 31.1111 116.471 31.1111 116.333V107.048C31.1111 106.91 31.223 106.798 31.3611 106.798ZM31.6111 80.9546C31.6111 80.8166 31.4991 80.7046 31.3611 80.7046C31.223 80.7046 31.1111 80.8166 31.1111 80.9546V90.2396C31.1111 90.3777 31.223 90.4896 31.3611 90.4896C31.4991 90.4896 31.6111 90.3777 31.6111 90.2396V80.9546ZM208.762 28.5185C208.901 28.5185 209.012 28.6305 209.012 28.7685V38.0535C209.012 38.1916 208.901 38.3035 208.762 38.3035C208.624 38.3035 208.512 38.1916 208.512 38.0535V28.7685C208.512 28.6305 208.624 28.5185 208.762 28.5185ZM209.013 41.8154C209.013 41.6773 208.901 41.5654 208.763 41.5654C208.624 41.5654 208.513 41.6773 208.513 41.8154V51.1003C208.513 51.2384 208.624 51.3503 208.763 51.3503C208.901 51.3503 209.013 51.2384 209.013 51.1003V41.8154ZM208.763 54.6116C208.901 54.6116 209.013 54.7235 209.013 54.8616V64.1465C209.013 64.2846 208.901 64.3965 208.763 64.3965C208.624 64.3965 208.513 64.2846 208.513 64.1465V54.8616C208.513 54.7235 208.624 54.6116 208.763 54.6116ZM209.013 67.9084C209.013 67.7703 208.901 67.6584 208.763 67.6584C208.624 67.6584 208.513 67.7703 208.513 67.9084V77.1933C208.513 77.3314 208.624 77.4433 208.763 77.4433C208.901 77.4433 209.013 77.3314 209.013 77.1933V67.9084ZM208.763 93.7515C208.901 93.7515 209.013 93.8635 209.013 94.0015V103.286C209.013 103.425 208.901 103.536 208.763 103.536C208.624 103.536 208.513 103.425 208.513 103.286V94.0015C208.513 93.8635 208.624 93.7515 208.763 93.7515ZM209.013 120.095C209.013 119.957 208.901 119.845 208.763 119.845C208.624 119.845 208.513 119.957 208.513 120.095V129.38C208.513 129.518 208.624 129.63 208.763 129.63C208.901 129.63 209.013 129.518 209.013 129.38V120.095ZM208.763 106.798C208.901 106.798 209.013 106.91 209.013 107.048V116.333C209.013 116.471 208.901 116.583 208.763 116.583C208.624 116.583 208.513 116.471 208.513 116.333V107.048C208.513 106.91 208.624 106.798 208.763 106.798ZM209.013 80.9546C209.013 80.8166 208.901 80.7046 208.763 80.7046C208.624 80.7046 208.513 80.8166 208.513 80.9546V90.2396C208.513 90.3776 208.624 90.4896 208.763 90.4896C208.901 90.4896 209.013 90.3776 209.013 90.2396V80.9546Z" fill="white"/>
<path d="M210.935 7.78182H27.5841C15.5884 7.78182 5.38122 15.3546 1.58362 25.93H236.935C233.138 15.3546 222.931 7.78182 210.935 7.78182Z" fill="#E4E4E4"/>
</svg>
